<svg xmlns="http://www.w3.org/2000/svg" xmlns:xlink="http://www.w3.org/1999/xlink" viewBox="0 0 1928.66 780.6"><defs><style>.cls-1{fill:url(#Degradado_sin_nombre_6);}.cls-2{fill:url(#Degradado_sin_nombre_6-2);}.cls-3{isolation:isolate;}.cls-4{opacity:0.3;fill:url(#Degradado_sin_nombre_46);}.cls-5{fill:url(#Degradado_sin_nombre_19);}.cls-6{fill:url(#Degradado_sin_nombre_19-2);}.cls-7{fill:url(#Degradado_sin_nombre_45);}.cls-8{fill:url(#Degradado_sin_nombre_202);}.cls-9{fill:url(#Degradado_sin_nombre_19-3);}.cls-10{fill:url(#Degradado_sin_nombre_45-2);}.cls-11{fill:url(#Degradado_sin_nombre_202-2);}.cls-12{fill:url(#Degradado_sin_nombre_32);}.cls-114,.cls-13,.cls-39,.cls-60,.cls-66,.cls-77,.cls-86,.cls-91,.cls-94{fill:none;}.cls-13,.cls-39{stroke:#111113;}.cls-13,.cls-39,.cls-91{stroke-miterlimit:10;}.cls-13{stroke-width:0.77px;}.cls-14{fill:url(#Degradado_sin_nombre_9);}.cls-15{fill:#ebaea3;}.cls-16{fill:url(#Degradado_sin_nombre_9-2);}.cls-17{fill:#fff;}.cls-18{fill:url(#Degradado_sin_nombre_9-3);}.cls-19{fill:url(#Degradado_sin_nombre_9-4);}.cls-20{fill:url(#Degradado_sin_nombre_202-3);}.cls-21{fill:url(#Degradado_sin_nombre_45-3);}.cls-22{fill:url(#Degradado_sin_nombre_19-4);}.cls-23{fill:url(#Degradado_sin_nombre_19-5);}.cls-24{fill:url(#Degradado_sin_nombre_19-6);}.cls-25{fill:url(#Degradado_sin_nombre_19-7);}.cls-26{fill:url(#Degradado_sin_nombre_19-8);}.cls-27{fill:#dc5368;}.cls-28{fill:url(#Degradado_sin_nombre_19-9);}.cls-29{fill:url(#Degradado_sin_nombre_9-5);}.cls-30{fill:url(#Degradado_sin_nombre_19-10);}.cls-31{fill:url(#Degradado_sin_nombre_11);}.cls-32{fill:url(#Degradado_sin_nombre_11-2);}.cls-33{fill:url(#Degradado_sin_nombre_7);}.cls-34{fill:url(#Degradado_sin_nombre_202-4);}.cls-35{fill:url(#Degradado_sin_nombre_11-3);}.cls-36{fill:url(#Degradado_sin_nombre_7-2);}.cls-37{fill:url(#Degradado_sin_nombre_202-5);}.cls-38{fill:url(#Degradado_sin_nombre_19-11);}.cls-39{stroke-width:0.75px;}.cls-40{fill:url(#Degradado_sin_nombre_202-6);}.cls-41{fill:url(#Degradado_sin_nombre_7-3);}.cls-42{fill:url(#Degradado_sin_nombre_202-7);}.cls-43{fill:url(#Degradado_sin_nombre_202-8);}.cls-44{fill:url(#Degradado_sin_nombre_11-4);}.cls-45{fill:url(#Degradado_sin_nombre_19-12);}.cls-46{fill:url(#Degradado_sin_nombre_11-5);}.cls-47{fill:url(#Degradado_sin_nombre_19-13);}.cls-48{fill:url(#Degradado_sin_nombre_202-9);}.cls-49{fill:url(#Degradado_sin_nombre_19-14);}.cls-50{fill:url(#Degradado_sin_nombre_19-15);}.cls-51{fill:url(#Degradado_sin_nombre_19-16);}.cls-52{fill:url(#Degradado_sin_nombre_19-17);}.cls-53{fill:url(#Degradado_sin_nombre_19-18);}.cls-54{fill:url(#Degradado_sin_nombre_4);}.cls-55{fill:url(#Degradado_sin_nombre_7-4);}.cls-56{fill:url(#Degradado_sin_nombre_45-4);}.cls-57{fill:url(#Degradado_sin_nombre_7-5);}.cls-58{fill:url(#Degradado_sin_nombre_45-5);}.cls-59{fill:url(#Degradado_sin_nombre_4-2);}.cls-60,.cls-77,.cls-86{stroke:#000;}.cls-114,.cls-60,.cls-66,.cls-77,.cls-86,.cls-94{stroke-linecap:round;stroke-linejoin:round;}.cls-60{stroke-width:1px;}.cls-61{fill:url(#Degradado_sin_nombre_32-2);}.cls-62{fill:url(#Degradado_sin_nombre_45-6);}.cls-63{fill:#1e0b02;}.cls-64{fill:url(#Degradado_sin_nombre_45-7);}.cls-65{fill:url(#Degradado_sin_nombre_45-8);}.cls-66{stroke:#d6967c;stroke-width:0.9px;}.cls-67{fill:url(#Degradado_sin_nombre_19-19);}.cls-68{fill:url(#Degradado_sin_nombre_9-6);}.cls-69{fill:url(#Degradado_sin_nombre_7-6);}.cls-70{fill:url(#Degradado_sin_nombre_45-9);}.cls-71{fill:url(#Degradado_sin_nombre_7-7);}.cls-72{fill:url(#Degradado_sin_nombre_19-20);}.cls-73{fill:#666;mix-blend-mode:overlay;}.cls-74{fill:url(#Degradado_sin_nombre_45-10);}.cls-75{fill:url(#Degradado_sin_nombre_19-21);}.cls-76{fill:url(#Degradado_sin_nombre_19-22);}.cls-77{stroke-width:0.52px;}.cls-78{fill:url(#Degradado_sin_nombre_19-23);}.cls-79{fill:url(#Degradado_sin_nombre_19-24);}.cls-80{fill:url(#Degradado_sin_nombre_19-25);}.cls-81{fill:url(#Degradado_sin_nombre_4-3);}.cls-82{fill:url(#Degradado_sin_nombre_24);}.cls-83{fill:url(#Degradado_sin_nombre_4-4);}.cls-84{fill:url(#Degradado_sin_nombre_24-2);}.cls-85{fill:url(#Degradado_sin_nombre_46-2);}.cls-86{stroke-width:0.95px;}.cls-87{fill:#e8b499;}.cls-88{fill:url(#Degradado_sin_nombre_18);}.cls-89{fill:url(#Degradado_sin_nombre_19-26);}.cls-90{fill:url(#Degradado_sin_nombre_18-2);}.cls-91{stroke:#fff;stroke-width:1.94px;}.cls-92{fill:url(#Degradado_sin_nombre_4-5);}.cls-93{fill:url(#Degradado_sin_nombre_16);}.cls-94{stroke:#c47268;stroke-width:0.69px;}.cls-95{fill:url(#Degradado_sin_nombre_20);}.cls-96{fill:url(#Degradado_sin_nombre_202-10);}.cls-97{fill:url(#Degradado_sin_nombre_16-2);}.cls-98{fill:url(#Degradado_sin_nombre_19-27);}.cls-99{fill:url(#Degradado_sin_nombre_19-28);}.cls-100{fill:url(#Degradado_sin_nombre_19-29);}.cls-101{fill:url(#Degradado_sin_nombre_19-30);}.cls-102{fill:url(#Degradado_sin_nombre_4-6);}.cls-103{fill:#262722;}.cls-104{fill:url(#Degradado_sin_nombre_202-11);}.cls-105{clip-path:url(#clip-path);}.cls-106{fill:url(#Degradado_sin_nombre_46-3);}.cls-107{fill:url(#Degradado_sin_nombre_202-12);}.cls-108{clip-path:url(#clip-path-2);}.cls-109{fill:url(#Degradado_sin_nombre_46-4);}.cls-110{fill:url(#Degradado_sin_nombre_7-8);}.cls-111{fill:url(#Degradado_sin_nombre_7-9);}.cls-112{fill:url(#Degradado_sin_nombre_7-10);}.cls-113{fill:url(#Degradado_sin_nombre_202-13);}.cls-114{stroke:#a8523f;stroke-width:0.75px;}.cls-115{fill:url(#Degradado_sin_nombre_202-14);}.cls-116{fill:url(#Degradado_sin_nombre_46-5);}.cls-117{fill:url(#Degradado_sin_nombre_18-3);}.cls-118{fill:url(#Degradado_sin_nombre_202-15);}.cls-119{fill:url(#Degradado_sin_nombre_19-31);}.cls-120{fill:url(#Degradado_sin_nombre_202-16);}.cls-121{fill:url(#Degradado_sin_nombre_11-6);}.cls-122{fill:url(#Degradado_sin_nombre_202-17);}.cls-123{fill:url(#Degradado_sin_nombre_19-32);}.cls-124{fill:url(#Degradado_sin_nombre_19-33);}.cls-125{fill:url(#Degradado_sin_nombre_19-34);}.cls-126{fill:url(#Degradado_sin_nombre_19-35);}.cls-127{fill:url(#Degradado_sin_nombre_19-36);}.cls-128{fill:url(#Degradado_sin_nombre_19-37);}.cls-129{fill:url(#Degradado_sin_nombre_19-38);}</style><linearGradient id="Degradado_sin_nombre_6" x1="539.22" y1="1058.74" x2="644.63" y2="1058.74" gradientUnits="userSpaceOnUse"><stop offset="0" stop-color="#3a3a3a"/><stop offset="1" stop-color="#181915"/></linearGradient><linearGradient id="Degradado_sin_nombre_6-2" x1="702.97" y1="1057.59" x2="808.38" y2="1057.59" xlink:href="#Degradado_sin_nombre_6"/><linearGradient id="Degradado_sin_nombre_46" x1="-8.66" y1="800.06" x2="1920" y2="800.06" gradientUnits="userSpaceOnUse"><stop offset="0" stop-color="#aeb8ff"/><stop offset="1" stop-color="#d7daff"/></linearGradient><linearGradient id="Degradado_sin_nombre_19" x1="1058.71" y1="428.52" x2="1178.68" y2="428.52" gradientUnits="userSpaceOnUse"><stop offset="0" stop-color="#181915"/><stop offset="1" stop-color="#3a3a3a"/></linearGradient><linearGradient id="Degradado_sin_nombre_19-2" x1="1214.87" y1="1086.24" x2="1214.87" y2="1054.21" xlink:href="#Degradado_sin_nombre_19"/><linearGradient id="Degradado_sin_nombre_45" x1="1198.72" y1="1071.63" x2="1198.72" y2="965.18" gradientUnits="userSpaceOnUse"><stop offset="0" stop-color="#efbfab"/><stop offset="0.99" stop-color="#e2a286"/></linearGradient><linearGradient id="Degradado_sin_nombre_202" x1="1181.8" y1="713.99" x2="1210.04" y2="713.99" gradientUnits="userSpaceOnUse"><stop offset="0" stop-color="#e0a78f"/><stop offset="1" stop-color="#c67b67"/></linearGradient><linearGradient id="Degradado_sin_nombre_19-3" x1="1014.33" y1="1085.94" x2="1014.33" y2="1054.21" xlink:href="#Degradado_sin_nombre_19"/><linearGradient id="Degradado_sin_nombre_45-2" x1="1030.55" y1="1071.63" x2="1030.55" y2="965.18" xlink:href="#Degradado_sin_nombre_45"/><linearGradient id="Degradado_sin_nombre_202-2" x1="1036.18" y1="712.73" x2="1065.07" y2="712.73" xlink:href="#Degradado_sin_nombre_202"/><linearGradient id="Degradado_sin_nombre_32" x1="1207.58" y1="1032.4" x2="992.96" y2="660.67" gradientUnits="userSpaceOnUse"><stop offset="0" stop-color="#f68700"/><stop offset="1" stop-color="#f7b334"/></linearGradient><linearGradient id="Degradado_sin_nombre_9" x1="933.24" y1="556.89" x2="1081.19" y2="556.89" gradientUnits="userSpaceOnUse"><stop offset="0.01" stop-color="#e2a286"/><stop offset="1" stop-color="#efbfab"/></linearGradient><linearGradient id="Degradado_sin_nombre_9-2" x1="1142.48" y1="590.97" x2="1267.46" y2="590.97" xlink:href="#Degradado_sin_nombre_9"/><linearGradient id="Degradado_sin_nombre_9-3" x1="1120.49" y1="508.05" x2="1120.49" y2="456.1" xlink:href="#Degradado_sin_nombre_9"/><linearGradient id="Degradado_sin_nombre_9-4" x1="1068.62" y1="436.5" x2="1093.71" y2="436.5" xlink:href="#Degradado_sin_nombre_9"/><linearGradient id="Degradado_sin_nombre_202-3" x1="1113.11" y1="161.73" x2="1139.88" y2="161.73" xlink:href="#Degradado_sin_nombre_202"/><linearGradient id="Degradado_sin_nombre_45-3" x1="1109.12" y1="472.86" x2="1109.12" y2="385.99" xlink:href="#Degradado_sin_nombre_45"/><linearGradient id="Degradado_sin_nombre_19-4" x1="1092.15" y1="442.67" x2="1097.54" y2="442.67" xlink:href="#Degradado_sin_nombre_19"/><linearGradient id="Degradado_sin_nombre_19-5" x1="1103.87" y1="423.09" x2="1119.67" y2="423.09" xlink:href="#Degradado_sin_nombre_19"/><linearGradient id="Degradado_sin_nombre_19-6" x1="1078.28" y1="422.43" x2="1090.02" y2="422.43" xlink:href="#Degradado_sin_nombre_19"/><linearGradient id="Degradado_sin_nombre_19-7" x1="1081.52" y1="432.63" x2="1087.26" y2="432.63" xlink:href="#Degradado_sin_nombre_19"/><linearGradient id="Degradado_sin_nombre_19-8" x1="1106.71" y1="433.15" x2="1112.45" y2="433.15" xlink:href="#Degradado_sin_nombre_19"/><linearGradient id="Degradado_sin_nombre_19-9" x1="1076.46" y1="407.14" x2="1149.18" y2="407.14" xlink:href="#Degradado_sin_nombre_19"/><linearGradient id="Degradado_sin_nombre_9-5" x1="1130.12" y1="438.84" x2="1155.38" y2="438.84" xlink:href="#Degradado_sin_nombre_9"/><linearGradient id="Degradado_sin_nombre_19-10" x1="1137.54" y1="438.68" x2="1147.89" y2="438.68" xlink:href="#Degradado_sin_nombre_19"/><linearGradient id="Degradado_sin_nombre_11" x1="1439.55" y1="628.95" x2="1526.51" y2="628.95" gradientUnits="userSpaceOnUse"><stop offset="0" stop-color="#c67b67"/><stop offset="1" stop-color="#e0a78f"/></linearGradient><linearGradient id="Degradado_sin_nombre_11-2" x1="1324.97" y1="753.42" x2="1324.97" y2="672.84" xlink:href="#Degradado_sin_nombre_11"/><linearGradient id="Degradado_sin_nombre_7" x1="1235.8" y1="1059.34" x2="1339.67" y2="1059.34" gradientUnits="userSpaceOnUse"><stop offset="0" stop-color="#7627ec"/><stop offset="1" stop-color="#a46ff0"/></linearGradient><linearGradient id="Degradado_sin_nombre_202-4" x1="1308.81" y1="717.18" x2="1339.32" y2="717.18" xlink:href="#Degradado_sin_nombre_202"/><linearGradient id="Degradado_sin_nombre_11-3" x1="1456.45" y1="753.55" x2="1456.45" y2="672.97" xlink:href="#Degradado_sin_nombre_11"/><linearGradient id="Degradado_sin_nombre_7-2" x1="1426.87" y1="1059.34" x2="1530.74" y2="1059.34" xlink:href="#Degradado_sin_nombre_7"/><linearGradient id="Degradado_sin_nombre_202-5" x1="1440.68" y1="705.71" x2="1472.19" y2="705.71" xlink:href="#Degradado_sin_nombre_202"/><linearGradient id="Degradado_sin_nombre_19-11" x1="1391.34" y1="713.7" x2="1391.34" y2="353.77" xlink:href="#Degradado_sin_nombre_19"/><linearGradient id="Degradado_sin_nombre_202-6" x1="1184.94" y1="504.15" x2="1314.42" y2="504.15" xlink:href="#Degradado_sin_nombre_202"/><linearGradient id="Degradado_sin_nombre_7-3" x1="1382.75" y1="681.79" x2="1382.75" y2="466.12" xlink:href="#Degradado_sin_nombre_7"/><linearGradient id="Degradado_sin_nombre_202-7" x1="1350.8" y1="455.25" x2="1423.15" y2="455.25" xlink:href="#Degradado_sin_nombre_202"/><linearGradient id="Degradado_sin_nombre_202-8" x1="1381.24" y1="127.63" x2="1413.15" y2="127.63" xlink:href="#Degradado_sin_nombre_202"/><linearGradient id="Degradado_sin_nombre_11-4" x1="1417.58" y1="396.05" x2="1441.52" y2="396.05" xlink:href="#Degradado_sin_nombre_11"/><linearGradient id="Degradado_sin_nombre_19-12" x1="1422" y1="395.34" x2="1434.2" y2="395.34" xlink:href="#Degradado_sin_nombre_19"/><linearGradient id="Degradado_sin_nombre_11-5" x1="1334.97" y1="396.05" x2="1358.91" y2="396.05" xlink:href="#Degradado_sin_nombre_11"/><linearGradient id="Degradado_sin_nombre_19-13" x1="1342.29" y1="395.34" x2="1354.49" y2="395.34" xlink:href="#Degradado_sin_nombre_19"/><linearGradient id="Degradado_sin_nombre_202-9" x1="1388.16" y1="438.25" x2="1388.16" y2="336.89" xlink:href="#Degradado_sin_nombre_202"/><linearGradient id="Degradado_sin_nombre_19-14" x1="1384.82" y1="400.82" x2="1391.5" y2="400.82" xlink:href="#Degradado_sin_nombre_19"/><linearGradient id="Degradado_sin_nombre_19-15" x1="1359.58" y1="373.63" x2="1382.05" y2="373.63" xlink:href="#Degradado_sin_nombre_19"/><linearGradient id="Degradado_sin_nombre_19-16" x1="1394.07" y1="373.63" x2="1416.54" y2="373.63" xlink:href="#Degradado_sin_nombre_19"/><linearGradient id="Degradado_sin_nombre_19-17" x1="1397.88" y1="389.79" x2="1409.73" y2="389.79" xlink:href="#Degradado_sin_nombre_19"/><linearGradient id="Degradado_sin_nombre_19-18" x1="1364.88" y1="389.79" x2="1376.74" y2="389.79" xlink:href="#Degradado_sin_nombre_19"/><linearGradient id="Degradado_sin_nombre_4" x1="1344.11" y1="355.54" x2="1439.64" y2="355.54" gradientUnits="userSpaceOnUse"><stop offset="0" stop-color="#2d2e5a"/><stop offset="1" stop-color="#42457c"/></linearGradient><linearGradient id="Degradado_sin_nombre_7-4" x1="487.31" y1="1087.92" x2="487.31" y2="1053" xlink:href="#Degradado_sin_nombre_7"/><linearGradient id="Degradado_sin_nombre_45-4" x1="478.12" y1="1072.17" x2="478.12" y2="958.11" xlink:href="#Degradado_sin_nombre_45"/><linearGradient id="Degradado_sin_nombre_7-5" x1="396.05" y1="1087.92" x2="396.05" y2="1053" xlink:href="#Degradado_sin_nombre_7"/><linearGradient id="Degradado_sin_nombre_45-5" x1="405.24" y1="1072.17" x2="405.24" y2="958.11" xlink:href="#Degradado_sin_nombre_45"/><linearGradient id="Degradado_sin_nombre_4-2" x1="436.58" y1="1020.74" x2="436.58" y2="620.72" xlink:href="#Degradado_sin_nombre_4"/><linearGradient id="Degradado_sin_nombre_32-2" x1="434.24" y1="619.13" x2="434.24" y2="491.28" xlink:href="#Degradado_sin_nombre_32"/><linearGradient id="Degradado_sin_nombre_45-6" x1="517.09" y1="572.66" x2="628.99" y2="572.66" xlink:href="#Degradado_sin_nombre_45"/><linearGradient id="Degradado_sin_nombre_45-7" x1="432.31" y1="507.07" x2="432.31" y2="452.76" xlink:href="#Degradado_sin_nombre_45"/><linearGradient id="Degradado_sin_nombre_45-8" x1="245.09" y1="534.53" x2="346.37" y2="534.53" xlink:href="#Degradado_sin_nombre_45"/><linearGradient id="Degradado_sin_nombre_19-19" x1="442.5" y1="63.88" x2="442.5" y2="15.71" xlink:href="#Degradado_sin_nombre_19"/><linearGradient id="Degradado_sin_nombre_9-6" x1="462.93" y1="426.24" x2="481.07" y2="426.24" xlink:href="#Degradado_sin_nombre_9"/><linearGradient id="Degradado_sin_nombre_7-6" x1="457.15" y1="445.59" x2="475.53" y2="445.59" xlink:href="#Degradado_sin_nombre_7"/><linearGradient id="Degradado_sin_nombre_45-9" x1="386.61" y1="426.24" x2="404.75" y2="426.24" xlink:href="#Degradado_sin_nombre_45"/><linearGradient id="Degradado_sin_nombre_7-7" x1="392.15" y1="445.59" x2="410.83" y2="445.59" xlink:href="#Degradado_sin_nombre_7"/><linearGradient id="Degradado_sin_nombre_19-20" x1="442.28" y1="129.11" x2="442.28" y2="49.67" xlink:href="#Degradado_sin_nombre_19"/><linearGradient id="Degradado_sin_nombre_45-10" x1="433.48" y1="458.68" x2="433.48" y2="369.75" xlink:href="#Degradado_sin_nombre_45"/><linearGradient id="Degradado_sin_nombre_19-21" x1="448.83" y1="421.78" x2="448.83" y2="415.89" xlink:href="#Degradado_sin_nombre_19"/><linearGradient id="Degradado_sin_nombre_19-22" x1="419.4" y1="421.78" x2="419.4" y2="415.89" xlink:href="#Degradado_sin_nombre_19"/><linearGradient id="Degradado_sin_nombre_19-23" x1="418.31" y1="409.56" x2="418.31" y2="402.01" xlink:href="#Degradado_sin_nombre_19"/><linearGradient id="Degradado_sin_nombre_19-24" x1="452.08" y1="409.35" x2="452.08" y2="402.31" xlink:href="#Degradado_sin_nombre_19"/><linearGradient id="Degradado_sin_nombre_19-25" x1="433.19" y1="398.55" x2="433.19" y2="365.36" xlink:href="#Degradado_sin_nombre_19"/><linearGradient id="Degradado_sin_nombre_4-3" x1="786.77" y1="746.44" x2="884.68" y2="746.44" xlink:href="#Degradado_sin_nombre_4"/><linearGradient id="Degradado_sin_nombre_24" x1="860.6" y1="731.21" x2="860.6" y2="682.67" gradientUnits="userSpaceOnUse"><stop offset="0" stop-color="#e89f8e"/><stop offset="1" stop-color="#d6816e"/></linearGradient><linearGradient id="Degradado_sin_nombre_4-4" x1="933.64" y1="746.44" x2="1031.56" y2="746.44" xlink:href="#Degradado_sin_nombre_4"/><linearGradient id="Degradado_sin_nombre_24-2" x1="955.85" y1="731.21" x2="955.85" y2="682.67" xlink:href="#Degradado_sin_nombre_24"/><linearGradient id="Degradado_sin_nombre_46-2" x1="899.86" y1="1028.15" x2="899.86" y2="627.31" xlink:href="#Degradado_sin_nombre_46"/><linearGradient id="Degradado_sin_nombre_18" x1="990.29" y1="731.67" x2="1013.97" y2="731.67" gradientUnits="userSpaceOnUse"><stop offset="0" stop-color="#d6816e"/><stop offset="0.65" stop-color="#e19381"/><stop offset="1" stop-color="#e89f8e"/></linearGradient><linearGradient id="Degradado_sin_nombre_19-26" x1="873.5" y1="704.82" x2="873.5" y2="451.64" xlink:href="#Degradado_sin_nombre_19"/><linearGradient id="Degradado_sin_nombre_18-2" x1="889.7" y1="467.81" x2="889.7" y2="405.08" xlink:href="#Degradado_sin_nombre_18"/><linearGradient id="Degradado_sin_nombre_4-5" x1="888.29" y1="363.22" x2="888.29" y2="310.94" xlink:href="#Degradado_sin_nombre_4"/><linearGradient id="Degradado_sin_nombre_16" x1="845.26" y1="378.57" x2="868.8" y2="378.57" gradientUnits="userSpaceOnUse"><stop offset="0" stop-color="#e89f8e"/><stop offset="0.51" stop-color="#e79d8c"/><stop offset="0.74" stop-color="#e39685"/><stop offset="0.91" stop-color="#dc8a78"/><stop offset="1" stop-color="#d6816e"/></linearGradient><linearGradient id="Degradado_sin_nombre_20" x1="911.78" y1="378.57" x2="935.33" y2="378.57" gradientUnits="userSpaceOnUse"><stop offset="0" stop-color="#d6816e"/><stop offset="1" stop-color="#e89f8e"/></linearGradient><linearGradient id="Degradado_sin_nombre_202-10" x1="882.71" y1="106.56" x2="916.04" y2="106.56" xlink:href="#Degradado_sin_nombre_202"/><linearGradient id="Degradado_sin_nombre_16-2" x1="889.84" y1="413.68" x2="889.84" y2="322.88" xlink:href="#Degradado_sin_nombre_16"/><linearGradient id="Degradado_sin_nombre_19-27" x1="872.18" y1="368.63" x2="877.79" y2="368.63" xlink:href="#Degradado_sin_nombre_19"/><linearGradient id="Degradado_sin_nombre_19-28" x1="899.7" y1="368.63" x2="905.32" y2="368.63" xlink:href="#Degradado_sin_nombre_19"/><linearGradient id="Degradado_sin_nombre_19-29" x1="864.53" y1="353.92" x2="882.86" y2="353.92" xlink:href="#Degradado_sin_nombre_19"/><linearGradient id="Degradado_sin_nombre_19-30" x1="893.45" y1="353.92" x2="911.78" y2="353.92" xlink:href="#Degradado_sin_nombre_19"/><linearGradient id="Degradado_sin_nombre_4-6" x1="887.99" y1="375.12" x2="887.99" y2="317.74" xlink:href="#Degradado_sin_nombre_4"/><linearGradient id="Degradado_sin_nombre_202-11" x1="631.89" y1="742.38" x2="631.89" y2="660.22" xlink:href="#Degradado_sin_nombre_202"/><clipPath id="clip-path" transform="translate(8.66 -310.94)"><path class="cls-1" d="M634.62,1046.89s-18.49,10.79-27.72-6.11l-67.68,35.92,105.41-.65Z"/></clipPath><linearGradient id="Degradado_sin_nombre_46-3" x1="591.96" y1="1085.92" x2="591.96" y2="1076.05" gradientTransform="translate(6.62 -3.6) rotate(0.35)" xlink:href="#Degradado_sin_nombre_46"/><linearGradient id="Degradado_sin_nombre_202-12" x1="733.03" y1="741.24" x2="733.03" y2="659.07" xlink:href="#Degradado_sin_nombre_202"/><clipPath id="clip-path-2" transform="translate(8.66 -310.94)"><path class="cls-2" d="M713,1045.75s18.5,10.78,27.73-6.12l67.68,35.92L703,1074.91Z"/></clipPath><linearGradient id="Degradado_sin_nombre_46-4" x1="755.64" y1="1084.77" x2="755.64" y2="1074.91" gradientTransform="translate(1830.84 317.61) rotate(89.65)" xlink:href="#Degradado_sin_nombre_46"/><linearGradient id="Degradado_sin_nombre_7-8" x1="669.07" y1="1015" x2="669.07" y2="652.5" xlink:href="#Degradado_sin_nombre_7"/><linearGradient id="Degradado_sin_nombre_7-9" x1="628.1" y1="709.24" x2="628.1" y2="677.47" xlink:href="#Degradado_sin_nombre_7"/><linearGradient id="Degradado_sin_nombre_7-10" x1="733.11" y1="709.24" x2="733.11" y2="677.47" xlink:href="#Degradado_sin_nombre_7"/><linearGradient id="Degradado_sin_nombre_202-13" x1="705.41" y1="490.95" x2="819.66" y2="490.95" xlink:href="#Degradado_sin_nombre_202"/><linearGradient id="Degradado_sin_nombre_202-14" x1="552.9" y1="629.3" x2="650.99" y2="629.3" xlink:href="#Degradado_sin_nombre_202"/><linearGradient id="Degradado_sin_nombre_46-5" x1="664.69" y1="662.57" x2="664.69" y2="494.72" xlink:href="#Degradado_sin_nombre_46"/><linearGradient id="Degradado_sin_nombre_18-3" x1="583.78" y1="525.58" x2="620.48" y2="525.58" xlink:href="#Degradado_sin_nombre_18"/><linearGradient id="Degradado_sin_nombre_202-15" x1="665.38" y1="518.05" x2="665.38" y2="456.31" xlink:href="#Degradado_sin_nombre_202"/><linearGradient id="Degradado_sin_nombre_19-31" x1="676.69" y1="387.29" x2="701.15" y2="387.29" xlink:href="#Degradado_sin_nombre_19"/><linearGradient id="Degradado_sin_nombre_202-16" x1="620.7" y1="429.8" x2="644.25" y2="429.8" xlink:href="#Degradado_sin_nombre_202"/><linearGradient id="Degradado_sin_nombre_11-6" x1="687.23" y1="429.8" x2="710.77" y2="429.8" xlink:href="#Degradado_sin_nombre_11"/><linearGradient id="Degradado_sin_nombre_202-17" x1="665.29" y1="464.91" x2="665.29" y2="374.11" xlink:href="#Degradado_sin_nombre_202"/><linearGradient id="Degradado_sin_nombre_19-32" x1="647.62" y1="419.86" x2="653.23" y2="419.86" xlink:href="#Degradado_sin_nombre_19"/><linearGradient id="Degradado_sin_nombre_19-33" x1="683.81" y1="108.92" x2="689.42" y2="108.92" xlink:href="#Degradado_sin_nombre_19"/><linearGradient id="Degradado_sin_nombre_19-34" x1="639.97" y1="405.15" x2="658.31" y2="405.15" xlink:href="#Degradado_sin_nombre_19"/><linearGradient id="Degradado_sin_nombre_19-35" x1="668.89" y1="405.15" x2="687.23" y2="405.15" xlink:href="#Degradado_sin_nombre_19"/><linearGradient id="Degradado_sin_nombre_19-36" x1="628.44" y1="403.99" x2="637.73" y2="403.99" xlink:href="#Degradado_sin_nombre_19"/><linearGradient id="Degradado_sin_nombre_19-37" x1="691.76" y1="402.41" x2="700.94" y2="402.41" xlink:href="#Degradado_sin_nombre_19"/><linearGradient id="Degradado_sin_nombre_19-38" x1="622.15" y1="376.8" x2="690.45" y2="376.8" xlink:href="#Degradado_sin_nombre_19"/></defs><g class="cls-3"><g id="Layer_1" data-name="Layer 1"><path class="cls-4" d="M12.49,561c78.17-45.3,196.55-13.07,259.79,40.72,30.39,25.85,58.55,55.25,94.87,72.71,40,19.23,86,19.94,129.45,13.69,44.2-6.37,85.53-23.37,130-29.1,34.68-4.46,71-2.68,103.08,10.67,50.41,21,106.53,24.43,157.74,4.85,28.94-11.06,56.43-25.84,86.47-33.75,83.35-22,153.13,19.88,222.28,58.35,34.6,19.25,66,41.06,104,54.69A396,396,0,0,0,1415,776.49c70.12,3.32,158-7.1,201.4-66.54C1690,609,1787.74,532.11,1920,520.12V1080H-8.66Z" transform="translate(8.66 -310.94)"/><path class="cls-5" d="M1102.77,382.73s-27,1.35-29.56,31c-1.92,22.14,2.35,32.07-14.5,49.78,0,0,49.29,29.09,120,7.69,0,0-13.28-22.92-12.92-44.69s-5.86-31.34-17.21-39.58S1114.12,373.83,1102.77,382.73Z" transform="translate(8.66 -310.94)"/><path class="cls-6" d="M1233,1066.47l20.68,10.21a5.16,5.16,0,0,1,2.84,5.91c-.54,1.85-2.29,3.56-6.89,3.64-10.23.19-55.48-6.87-55.48-6.87v5.12h-21.06s-1.41-26.75,5-30.27Z" transform="translate(8.66 -310.94)"/><path class="cls-7" d="M1203,1044.79l-5.26-76.45-33.3-3.16,13.73,89s19.78,9.21,35.57,15.32,19.35-3.06,19.35-3.06Z" transform="translate(8.66 -310.94)"/><polygon class="cls-8" points="1210.04 710.94 1182.74 717.03 1181.8 710.94 1210.04 710.94"/><path class="cls-9" d="M996.22,1066.47l-20.68,10.21a5.16,5.16,0,0,0-2.84,5.91c.54,1.85,2.3,3.27,6.9,3.35,10.23.18,55.47-6.58,55.47-6.58v5.12H1056s1.56-26.75-4.84-30.27Z" transform="translate(8.66 -310.94)"/><path class="cls-10" d="M1031.57,968.34l-5.26,76.45-30.09,21.68s3.57,9.17,19.35,3.06,35.57-15.32,35.57-15.32l13.73-89Z" transform="translate(8.66 -310.94)"/><polygon class="cls-11" points="1065.07 709.15 1036.66 709.34 1036.18 716.31 1065.07 709.15"/><path class="cls-12" d="M1143.86,611.59s28.56,9.25,49.67,106.07,28.55,232.34,32.27,304.22h-76.4l-40-299.52-18.89,297.49-76.69.53s4.42-376.19,64.16-408.79Z" transform="translate(8.66 -310.94)"/><line class="cls-13" x1="1118.06" y1="411.42" x2="1097.91" y2="403.75"/><line class="cls-13" x1="1232.65" y1="677.27" x2="1154.69" y2="677.27"/><line class="cls-13" x1="1100.34" y1="677.27" x2="1023.6" y2="677.27"/><path class="cls-14" d="M1047.91,514.15c-12.39,19.29-50.15,49.25-108.45,69.45l-6.22,36s99.21-24.82,138.37-65.51l9.58-59.93S1060.31,494.87,1047.91,514.15Z" transform="translate(8.66 -310.94)"/><path class="cls-15" d="M1078,611.59c-1.13,1.52,65.88,0,65.88,0v-9.87l-66.29.18S1079.12,610.07,1078,611.59Z" transform="translate(8.66 -310.94)"/><path class="cls-16" d="M1267.44,607.69a20.6,20.6,0,0,0-3-10.51L1216,537.44c-17-32.05-43-31.82-43-31.82l-22.71,3.77-7.81,36.21L1161.35,565a106.07,106.07,0,0,0,6.7-12.35l51.48,52.55-60.26,42.53-13.69-3.56,16.47,32.12,16.16-10-.32-.36,75.9-38.36A20.08,20.08,0,0,0,1267.44,607.69Z" transform="translate(8.66 -310.94)"/><line class="cls-13" x1="1150.45" y1="325.74" x2="1175.56" y2="374.85"/><path class="cls-17" d="M1149.69,499.41l23.31,6.21S1153.33,528,1161.35,565l-17.49,36.7-66.29.18-14.2-43.82c-3.9-12.05-6.89-24.79-.95-36l15.15-27.78,14.55-.62Z" transform="translate(8.66 -310.94)"/><path class="cls-18" d="M1134.83,494.61l-2-38.51L1104.52,468l.19,23.21-16,2.17s8.61,27.91,63.67,6.65Z" transform="translate(8.66 -310.94)"/><path class="cls-19" d="M1093.71,436.3A12.55,12.55,0,1,1,1081,424,12.56,12.56,0,0,1,1093.71,436.3Z" transform="translate(8.66 -310.94)"/><polygon class="cls-20" points="1113.32 172.87 1139.88 150.58 1113.11 154.63 1113.32 172.87"/><path class="cls-21" d="M1105.33,472.86h0c-16-.82-28.68-15.45-28.45-28.55l.67-28.41a30.45,30.45,0,0,1,30-29.91h0c16.81-.25,33.6,13.12,33.85,29.93l-.85,24.86C1139.85,460,1124.56,472.56,1105.33,472.86Z" transform="translate(8.66 -310.94)"/><path class="cls-22" d="M1096.69,446.55h-.08l-2.21-.2a2.53,2.53,0,0,1-1.74-1,2.47,2.47,0,0,1-.47-1.93l.7-4a.84.84,0,0,1,1-.69.86.86,0,0,1,.69,1l-.7,4a.78.78,0,0,0,.15.61.75.75,0,0,0,.55.3l2.21.21a.84.84,0,0,1,.76.92A.85.85,0,0,1,1096.69,446.55Z" transform="translate(8.66 -310.94)"/><path class="cls-23" d="M1110.89,420.74s-6.8-.93-7,1.85c0,0-.09,1.88,5.84,2.58s9.28.64,9.92-1.1S1114.09,420.94,1110.89,420.74Z" transform="translate(8.66 -310.94)"/><path class="cls-24" d="M1084,420.29s5.67-.27,6,2.36c0,0,.17,1.79-4.78,1.92s-6.53-.58-6.92-2C1077.88,420.89,1081.35,420.19,1084,420.29Z" transform="translate(8.66 -310.94)"/><path class="cls-25" d="M1087.26,432.7a2.87,2.87,0,1,1-2.81-2.94A2.86,2.86,0,0,1,1087.26,432.7Z" transform="translate(8.66 -310.94)"/><path class="cls-26" d="M1112.45,433.21a2.87,2.87,0,1,1-2.81-2.93A2.86,2.86,0,0,1,1112.45,433.21Z" transform="translate(8.66 -310.94)"/><path class="cls-27" d="M1089,450.82l17.07-1.14s-2.87,3.16-10.72,3.16C1090.27,452.84,1089,450.82,1089,450.82Z" transform="translate(8.66 -310.94)"/><path class="cls-28" d="M1143.19,397.32c-13.47-13-23.91-14.5-23.91-14.5l-19.6.41a29,29,0,0,0-5.89,3.57c-.84.26-1.77.55-2.89,1-12.07,4.31-16.77,20.08-13.35,28.14a78,78,0,0,0,14-12.92c7.87,11.22,29.7,24.49,51.66,28.47C1143.19,431.45,1156.66,410.27,1143.19,397.32Z" transform="translate(8.66 -310.94)"/><path class="cls-29" d="M1155.38,438.65a12.63,12.63,0,1,1-12.82-12.43A12.63,12.63,0,0,1,1155.38,438.65Z" transform="translate(8.66 -310.94)"/><path class="cls-30" d="M1138.39,443.52a.84.84,0,0,1-.85-.84c0-.19,0-4.58,2.87-7.12,1.67-1.47,3.94-2,6.75-1.59a.85.85,0,1,1-.26,1.69,6.42,6.42,0,0,0-5.36,1.18c-2.32,2-2.29,5.78-2.29,5.81a.85.85,0,0,1-.85.87Z" transform="translate(8.66 -310.94)"/><path class="cls-31" d="M1515.29,578.4l-33.39-56.87-42.35,22L1484.14,610l-37.77,74c-2.09,2.66-4.12,7.61-4.74,16.79-1.39,20.84-6.62,34.56,7.67,35.54s38.7-11,22-27.78l-5.25-15,53.56-67.37C1531.25,612.68,1527,598.53,1515.29,578.4Z" transform="translate(8.66 -310.94)"/><polygon class="cls-32" points="1308.28 751.57 1309.35 674.49 1341.66 672.85 1337.04 753.42 1308.28 751.57 1308.28 751.57"/><path class="cls-33" d="M1332,1049.23s-24.67,10.68-36.27-6.13l-59.94,32.48,103.87-.7Z" transform="translate(8.66 -310.94)"/><rect class="cls-17" x="1235.83" y="1075.23" width="103.87" height="9.17" transform="translate(2591.4 1840.04) rotate(179.62)"/><polygon class="cls-34" points="1339.32 713.52 1338.89 721.11 1308.81 713.26 1339.32 713.52"/><polygon class="cls-35" points="1477.37 751.69 1467.84 674.62 1435.53 672.97 1448.62 753.55 1477.37 751.69 1477.37 751.69"/><path class="cls-36" d="M1434.53,1049.23s24.67,10.68,36.27-6.13l59.94,32.48-103.87-.7Z" transform="translate(8.66 -310.94)"/><rect class="cls-17" x="1426.84" y="1075.23" width="103.87" height="9.17" transform="translate(15.93 -320.82) rotate(0.38)"/><polygon class="cls-37" points="1440.68 704.69 1472.19 709.79 1471.18 701.63 1440.68 704.69"/><polygon class="cls-38" points="1314.97 353.77 1290.99 713.11 1362.11 713.7 1387.09 409.36 1414.21 707.34 1491.69 699.58 1454.75 353.77 1314.97 353.77"/><line class="cls-39" x1="1387.09" y1="409.36" x2="1412.25" y2="400.32"/><path class="cls-40" d="M1275.53,526.5l-16.88,21.65-23.18-77.87c2.12-3.64,6.47-13.51,5.58-32.38a3.84,3.84,0,0,0-7.57-.71l-4.39,10.62-4.27-34.13c-.22-1.44-1.39-3.39-3.25-3.28a3.13,3.13,0,0,0-3.34,3.14l1.68,24.34L1212.53,410a2.62,2.62,0,0,0-5.12,1l4.57,30.64L1203.26,417a2.92,2.92,0,0,0-5.61,1.59l6,27.44-14-16a2.76,2.76,0,0,0-4.14,3.62l12.43,19.87s1.78,11.66,13.12,22.55l11.43,95.85c-.08,24,27.9,37.17,46.35,21.81l45.61-40.12Z" transform="translate(8.66 -310.94)"/><path class="cls-41" d="M1494.82,530.78c-22-58.72-59.85-62.34-59.85-62.34v0c-.34-.05-.67-.12-1-.14l-29.88-1.5-78.51-.71s-15.54,2.26-27.33,17.43-27.55,43.34-27.55,43.34l40.57,41.72-7.56,96,149,17.16-5.83-115.29Z" transform="translate(8.66 -310.94)"/><line class="cls-39" x1="1453.29" y1="210.59" x2="1455.26" y2="254.45"/><line class="cls-39" x1="1319.91" y1="257.67" x2="1323.44" y2="212.77"/><path class="cls-42" d="M1405,466.25c0-.24,0-.46,0-.7l-1.65-40.6-32-.9-1.72,42.07h0l-18.89.23s-2,19.13,34.85,20.08,37.48-18.85,37.48-18.85Z" transform="translate(8.66 -310.94)"/><polygon class="cls-43" points="1381.24 122.47 1413.15 141.24 1412.05 114.01 1381.24 122.47"/><path class="cls-44" d="M1441.52,396.05a12,12,0,1,1-12-12A12,12,0,0,1,1441.52,396.05Z" transform="translate(8.66 -310.94)"/><path class="cls-45" d="M1422.84,399.49a.84.84,0,0,1-.68-1.34c.07-.1.16-.28.29-.52,1-1.82,3.91-7.36,11-6.31a.84.84,0,0,1,.71.95.83.83,0,0,1-1,.71c-6-.87-8.29,3.55-9.29,5.44a7.5,7.5,0,0,1-.42.73A.86.86,0,0,1,1422.84,399.49Z" transform="translate(8.66 -310.94)"/><path class="cls-46" d="M1335,396.05a12,12,0,1,0,12-12A12,12,0,0,0,1335,396.05Z" transform="translate(8.66 -310.94)"/><path class="cls-47" d="M1353.65,399.49a.86.86,0,0,1-.68-.34,7.5,7.5,0,0,1-.42-.73c-1-1.89-3.31-6.32-9.29-5.44a.84.84,0,1,1-.25-1.66c7.12-1.05,10.06,4.49,11,6.31a5,5,0,0,0,.28.52.83.83,0,0,1-.67,1.34Z" transform="translate(8.66 -310.94)"/><path class="cls-48" d="M1425.47,374.66a166.31,166.31,0,0,1-4.41,37.76c-2.16,9.15-8.22,15.54-16.79,20.69l-1.54.92a29.85,29.85,0,0,1-30,.34h0c-9.29-5.29-15.79-12.27-17.79-22.08-3.64-17.86-4-37.63-4-37.63s-3.47-38.51,36.75-37.76S1425.47,374.66,1425.47,374.66Z" transform="translate(8.66 -310.94)"/><path class="cls-49" d="M1387.6,405.15a2.72,2.72,0,0,1-1.73-.62,2.86,2.86,0,0,1-1-2.22v-5a.86.86,0,0,1,.85-.86h0a.86.86,0,0,1,.85.85v5a1.14,1.14,0,0,0,.42.9,1,1,0,0,0,.88.22l2.65-.56a.84.84,0,0,1,1,.66.85.85,0,0,1-.66,1l-2.66.55A2.6,2.6,0,0,1,1387.6,405.15Z" transform="translate(8.66 -310.94)"/><path class="cls-50" d="M1382.05,374.48l-22.47,2.69s1.8-5.93,11-6.95S1382.05,374.48,1382.05,374.48Z" transform="translate(8.66 -310.94)"/><path class="cls-51" d="M1394.07,374.48l22.47,2.69s-1.81-5.93-11-6.95S1394.07,374.48,1394.07,374.48Z" transform="translate(8.66 -310.94)"/><path class="cls-17" d="M1374.91,410.1h23.59s-1.87,6.08-11.8,6.08A13.69,13.69,0,0,1,1374.91,410.1Z" transform="translate(8.66 -310.94)"/><path class="cls-52" d="M1408.45,392.14a1.26,1.26,0,0,1-.9-.37,5.21,5.21,0,0,0-3.66-1.77h-.06a5.93,5.93,0,0,0-3.74,1.74,1.28,1.28,0,0,1-1.88-1.74,8.46,8.46,0,0,1,5.55-2.56h.14a7.65,7.65,0,0,1,5.46,2.53,1.28,1.28,0,0,1-.91,2.18Z" transform="translate(8.66 -310.94)"/><path class="cls-53" d="M1375.46,392.14a1.28,1.28,0,0,1-.91-.37,5.18,5.18,0,0,0-3.65-1.77h-.06a5.93,5.93,0,0,0-3.74,1.74,1.28,1.28,0,0,1-1.88-1.74,8.46,8.46,0,0,1,5.55-2.56,7.37,7.37,0,0,1,5.59,2.52,1.28,1.28,0,0,1,0,1.81A1.26,1.26,0,0,1,1375.46,392.14Z" transform="translate(8.66 -310.94)"/><path class="cls-54" d="M1439.64,355.59l-8.16-7.26,6.19-2.17c-2.84-4.59-13.88-9.33-13.88-9.33l5.74-1s-9.34-16.8-40.85-14.86-33.45,24.26-33.45,24.26v.11c-1.83.6-22.64,8.41-2.2,45,0,0,5.38-17.36,4.46-33.37,1.56-2.36,8.06-10.74,18.61-4.87,9.86,5.48,19.62,10.72,34.5,9.72a58.59,58.59,0,0,0,7-.55c.75,14.67,6.38,29.07,6.38,29.07,6.6-14.87,7.6-24.93,6.27-31.69C1435.78,357.09,1439.64,355.59,1439.64,355.59Z" transform="translate(8.66 -310.94)"/><path class="cls-55" d="M505.22,1066.49l20.4,11.24a5.88,5.88,0,0,1,2.81,6.5c-.53,2-2.28,3.6-6.82,3.69-10.08.2-54.72-7.24-54.72-7.24v5.23l-20.72-2.62s-1.45-26.43,4.86-30.29Z" transform="translate(8.66 -310.94)"/><path class="cls-56" d="M478.12,1044.38V958.11L451,960.31l2.84,81L451,1053s19.51,10.13,35.09,16.86,19.1-3.37,19.1-3.37Z" transform="translate(8.66 -310.94)"/><path class="cls-57" d="M378.15,1066.49l-20.41,11.24a5.89,5.89,0,0,0-2.8,6.5c.53,2,2.27,3.6,6.81,3.69,10.09.2,54.73-7.24,54.73-7.24v5.23l20.72-2.62s1.45-26.43-4.86-30.29Z" transform="translate(8.66 -310.94)"/><path class="cls-58" d="M429.49,1041.32l-2.07-81-27.09-2.2,4.48,86.62-26.66,21.76s3.52,10.09,19.09,3.37,35.1-16.86,35.1-16.86Z" transform="translate(8.66 -310.94)"/><path class="cls-59" d="M473.31,629.45S506,650.13,499.52,744.53s-16.42,276.21-16.42,276.21H449.77L438.5,709.17l-5.47-.24.15,311.81H399.85l-26.2-283.25s-7.69-63,23.18-108C392.46,632.33,437,608.44,473.31,629.45Z" transform="translate(8.66 -310.94)"/><line class="cls-60" x1="461.93" y1="398.2" x2="428.42" y2="399.74"/><path class="cls-61" d="M547.8,583.21s-18.1-29.05-31.95-59.82C508.48,507,499,501.3,491.75,499.53h0l-26.92-6.34-65-1.9-24,6.4c-7.47.85-18.73,5.58-27.21,24.41C334.71,552.86,320.67,588,320.67,588l25.71,6.91,33.37-49.55c8.34,35.65,17.08,73.76,17.08,73.76,37.65-6.43,76.48,0,76.48,0,3.43-18.37,7.73-46.08,11.32-70.2L518,596.22Z" transform="translate(8.66 -310.94)"/><line class="cls-60" x1="493.29" y1="237.99" x2="494.76" y2="223.44"/><path class="cls-62" d="M620.33,536.54,629,549.28l-84.51,56.66a17.76,17.76,0,0,1-26.33-8.9h0a17.76,17.76,0,0,1,9.93-22.44Z" transform="translate(8.66 -310.94)"/><path class="cls-63" d="M473.31,619.13v10.32s-38.24-4.32-76.48,0V619.13L435.15,608Z" transform="translate(8.66 -310.94)"/><path class="cls-64" d="M447.24,485.14l-2.16-31.92-21.27-.46-3,30.59-21,7.93s3.44,15.84,31.33,15.79c32.74-.05,33.71-13.89,33.71-13.89Z" transform="translate(8.66 -310.94)"/><line class="cls-60" x1="389" y1="235.28" x2="386.46" y2="221.78"/><path class="cls-65" d="M344.76,584.53,303.41,494a21.89,21.89,0,0,0-.44-3.5l-.86-3.91a34.35,34.35,0,0,0-6.91-14.35l-6-7.34a3.64,3.64,0,0,0-5.56-.11A4.67,4.67,0,0,0,283,470l4.53,9-29-19.05a2.82,2.82,0,0,0-4.11,1l-.53,1a2.83,2.83,0,0,0,.73,3.5l19,13.51-24-12.5a2.83,2.83,0,0,0-4,1.26l-.34.77a2.81,2.81,0,0,0,1.12,3.56L267,484.24l-17.67-5.86a2.82,2.82,0,0,0-3.76,2.27l-.05.36a2.82,2.82,0,0,0,1.6,2.93l17.92,7.4L255,489.66a2.82,2.82,0,0,0-2,5.28l38.27,15.23,20.08,86.08a17.76,17.76,0,0,0,25.32,11.46h0A17.76,17.76,0,0,0,344.76,584.53Z" transform="translate(8.66 -310.94)"/><path class="cls-66" d="M287.54,478.93s-3,7.21,2,15.62" transform="translate(8.66 -310.94)"/><circle class="cls-67" cx="442.5" cy="39.8" r="24.08"/><path class="cls-68" d="M468,417.21s6.37-4.95,11,.92c7.07,8.93-5.3,25.09-16.06,16.77Z" transform="translate(8.66 -310.94)"/><path d="M467,430.14a.57.57,0,0,1-.25-.06.55.55,0,0,1-.24-.75c4-7.83,7.9-6.71,8.07-6.66a.55.55,0,0,1,.37.7.58.58,0,0,1-.7.37c-.06,0-3.23-.75-6.75,6.1A.56.56,0,0,1,467,430.14Z" transform="translate(8.66 -310.94)"/><path class="cls-69" d="M466.43,457.52c-4.15,0-8.67-4.27-9.28-12.45a1.12,1.12,0,0,1,1-1.19,1.15,1.15,0,0,1,1.19,1c.5,6.75,4,10.39,7.06,10.39,3.79,0,6.87-4.36,6.87-9.71s-3.08-9.71-6.87-9.71a1.12,1.12,0,0,1,0-2.23c5,0,9.1,5.35,9.1,11.94S471.45,457.52,466.43,457.52Z" transform="translate(8.66 -310.94)"/><path class="cls-70" d="M399.7,417.21s-6.36-4.95-11,.92c-7.07,8.93,5.31,25.09,16.07,16.77Z" transform="translate(8.66 -310.94)"/><path d="M400.67,430.14a.54.54,0,0,1-.49-.3c-3.55-6.9-6.72-6.11-6.76-6.1a.57.57,0,0,1-.69-.38.55.55,0,0,1,.36-.69c.17-.05,4.06-1.18,8.08,6.66a.56.56,0,0,1-.24.75A.62.62,0,0,1,400.67,430.14Z" transform="translate(8.66 -310.94)"/><path class="cls-71" d="M401.24,457.52c-5,0-9.09-5.35-9.09-11.93s4.08-11.94,9.09-11.94a1.12,1.12,0,1,1,0,2.23c-3.78,0-6.86,4.35-6.86,9.71s3.08,9.71,6.86,9.71c3,0,7.36-4.66,7.36-11.09a1.12,1.12,0,0,1,2.23,0C410.83,451.59,405.59,457.52,401.24,457.52Z" transform="translate(8.66 -310.94)"/><ellipse class="cls-72" cx="442.28" cy="89.39" rx="40.73" ry="39.72"/><path class="cls-73" d="M422.88,456.32c.93.52,23.49,16.44,23.49,16.44l-1.31-19.89Z" transform="translate(8.66 -310.94)"/><path class="cls-74" d="M468,397.36s4.29,61.32-33,61.32c-40.35,0-36.12-61.32-36.12-61.32s.23-27.61,34.88-27.61C465.55,369.75,468,397.36,468,397.36Z" transform="translate(8.66 -310.94)"/><path class="cls-75" d="M445.88,418.84a2.95,2.95,0,1,0,2.95-2.95A2.95,2.95,0,0,0,445.88,418.84Z" transform="translate(8.66 -310.94)"/><path class="cls-76" d="M416.45,418.84a2.95,2.95,0,1,0,2.95-2.95A2.95,2.95,0,0,0,416.45,418.84Z" transform="translate(8.66 -310.94)"/><path class="cls-17" d="M444.66,436.8h-18.6s1.26,4.72,9.2,4.72S444.66,436.8,444.66,436.8Z" transform="translate(8.66 -310.94)"/><polyline class="cls-77" points="445.63 115.3 445.63 120.07 442.15 120.14"/><path class="cls-78" d="M419.65,402.27s7.55-1.47,7.9,2.59c0,0,.18,2.76-6.42,3.87s-11.24,1.42-12-1.12S416.08,402.6,419.65,402.27Z" transform="translate(8.66 -310.94)"/><path class="cls-79" d="M454.28,402.66s7.69.34,7.08,4.38c0,0-.48,2.72-7.16,2.25s-11.42-1.23-11.42-4.17C442.78,401.7,450.73,402.14,454.28,402.66Z" transform="translate(8.66 -310.94)"/><path class="cls-80" d="M470.71,398.55c-.78-23.66-14-28.34-21.94-29a.66.66,0,0,1,0-.09s-2.84-7-26.45-2.7-26.66,30.67-26.66,30.67c30.52,1,43.77-11,49.32-19.59C451.86,393.47,470.71,398.55,470.71,398.55Z" transform="translate(8.66 -310.94)"/><polygon class="cls-81" points="878.15 731.21 843.72 731.21 786.77 761.68 884.68 760.51 878.15 731.21"/><path class="cls-63" d="M852,1078.48a6,6,0,0,1,5.91,6.06l18.43,0-.33-13-97.91,1.17.34,12.88,67.63-.82v0A6.05,6.05,0,0,1,852,1078.48Z" transform="translate(8.66 -310.94)"/><path class="cls-17" d="M822.54,1058.55a2.16,2.16,0,0,1-.56-.08l-11.28-3.08a2.09,2.09,0,0,1,1.1-4l11.29,3.08a2.09,2.09,0,0,1-.55,4.11Z" transform="translate(8.66 -310.94)"/><path class="cls-17" d="M833.56,1052.89a2.15,2.15,0,0,1-.55-.08l-11.28-3.08a2.09,2.09,0,0,1,1.1-4l11.28,3.08a2.09,2.09,0,0,1-.55,4.11Z" transform="translate(8.66 -310.94)"/><rect class="cls-82" x="843.05" y="682.67" width="35.1" height="48.55"/><polygon class="cls-83" points="940.18 731.21 974.61 731.21 1031.56 761.68 933.64 760.51 940.18 731.21"/><path class="cls-63" d="M949,1078.48a6,6,0,0,0-5.92,6.06H924.67l.31-13.09,97.91,1.17-.34,12.88-67.63-.82v0A6,6,0,0,0,949,1078.48Z" transform="translate(8.66 -310.94)"/><path class="cls-17" d="M980.22,1060.3a2.09,2.09,0,0,1-1-4l9.53-4.84a2.09,2.09,0,0,1,1.89,3.73l-9.52,4.83A2,2,0,0,1,980.22,1060.3Z" transform="translate(8.66 -310.94)"/><path class="cls-17" d="M970.94,1052.89a2.09,2.09,0,0,1-.77-4l7.78-3.08a2.09,2.09,0,0,1,1.54,3.89l-7.77,3.08A2.16,2.16,0,0,1,970.94,1052.89Z" transform="translate(8.66 -310.94)"/><polygon class="cls-84" points="971.52 682.67 936.42 682.67 940.18 731.21 975.28 731.21 971.52 682.67"/><path class="cls-85" d="M950.46,627.31c2.64,28.15,23.74,400.84,23.74,400.84H919.41l-24-331-9.87.19-6.38,330.85H826.79s-3-345.8.2-400Z" transform="translate(8.66 -310.94)"/><line class="cls-86" x1="880.35" y1="386.42" x2="920.5" y2="386.42"/><polygon class="cls-87" points="987.07 353.65 1003.14 394.61 1015.56 393.29 1006.14 340.31 987.07 353.65"/><path class="cls-88" d="M993.87,699.1a32.1,32.1,0,0,0-1.14,25.27l-2.37,13.94a4.62,4.62,0,0,0,2.76,5.09h0a3.93,3.93,0,0,0,5.15-2.54l2.73-8,.53,3a22.29,22.29,0,0,1-1.86,13.64l-5.79,11.81a4.49,4.49,0,0,0,.22,4.29h0a3.76,3.76,0,0,0,6.46.25l9.44-14.38a25.19,25.19,0,0,0,3.31-19.4L1005,695.77Z" transform="translate(8.66 -310.94)"/><path class="cls-89" d="M1011.13,698.05s-20.8-151.57-40.86-208.14c-10-28.24-28.82-33-28.82-33h0l-11.73-5.22-80-.08-16.44,6.9a18.26,18.26,0,0,0-2.49,1.28c-52.27,27-94.9,75.23-94.9,75.23l28.66,34.52L822.13,533V650.14h135l0-15.17,18.12,69.85Z" transform="translate(8.66 -310.94)"/><path class="cls-90" d="M908.37,442.47l-3-36.77s-6.63,4.68-12.68,5.84-11.93-2.36-12-2.4l-7.06-4.06L870.81,443l-21.12,8.69c39.9,36.34,80,.08,80,.08Z" transform="translate(8.66 -310.94)"/><path class="cls-91" d="M849.69,451.64s13.9,16.45,39.91,16.45,40.12-16.37,40.12-16.37" transform="translate(8.66 -310.94)"/><line class="cls-86" x1="965.75" y1="319.29" x2="965.37" y2="203.11"/><line class="cls-86" x1="830.8" y1="222.03" x2="830.8" y2="202.54"/><path class="cls-92" d="M909.48,315.65c-26.89-13.7-42.06,6.84-42.06,6.84-31.28,8.24-12.67,40.73-12.67,40.73l8.8-11.43L923,363.06S939,330.68,909.48,315.65Z" transform="translate(8.66 -310.94)"/><path class="cls-93" d="M868.8,378.24a11.77,11.77,0,1,1-12.1-11.44A11.79,11.79,0,0,1,868.8,378.24Z" transform="translate(8.66 -310.94)"/><path class="cls-94" d="M850.35,376.91s4.68-2.28,9.14,5.86" transform="translate(8.66 -310.94)"/><path class="cls-95" d="M911.78,378.57a11.78,11.78,0,1,0,11.77-11.77A11.77,11.77,0,0,0,911.78,378.57Z" transform="translate(8.66 -310.94)"/><path class="cls-94" d="M930.19,376.73s-4.75-2.15-9,6.1" transform="translate(8.66 -310.94)"/><polygon class="cls-96" points="882.71 94.46 914.07 94.82 916.04 118.65 882.71 94.46"/><path class="cls-97" d="M922.08,358.07a146.9,146.9,0,0,1-3.63,33c-1.82,8-8.85,13.6-16.21,18.12l-1.34.83c-7.8,4.78-14.24,4.95-22.2.41h0c-8-4.58-15.49-10.63-17.26-19.19a214.67,214.67,0,0,1-3.64-32.8s-4.52-36,30.15-35.52S922.08,358.07,922.08,358.07Z" transform="translate(8.66 -310.94)"/><path class="cls-98" d="M877.79,368.63a2.81,2.81,0,1,1-2.81-2.8A2.81,2.81,0,0,1,877.79,368.63Z" transform="translate(8.66 -310.94)"/><path class="cls-99" d="M905.32,368.63a2.81,2.81,0,1,1-2.81-2.8A2.81,2.81,0,0,1,905.32,368.63Z" transform="translate(8.66 -310.94)"/><polyline class="cls-94" points="894.86 65.03 894.86 69.53 898.5 69.53"/><path class="cls-100" d="M864.53,356.77l18.33-1.65s-1.64-4.75-9.05-4C866.22,351.93,864.53,356.77,864.53,356.77Z" transform="translate(8.66 -310.94)"/><path class="cls-101" d="M911.78,356.77l-18.33-1.65s1.64-4.75,9-4C910.08,351.93,911.78,356.77,911.78,356.77Z" transform="translate(8.66 -310.94)"/><path class="cls-17" d="M879.93,386.88H898s-.85,5.54-9.31,5.54S879.93,386.88,879.93,386.88Z" transform="translate(8.66 -310.94)"/><path class="cls-102" d="M918.42,327.25l.33,6.62c-4.32-7.08-13.18-16.43-29.72-16.13-24,.45-19.5,7.74-18.44,9.1-20.07,5.3-20.47,23.84-20.47,23.84l7.35,21.86s6-22.32,5.62-32.88c-.35-10.21,9.64-13.26,10.33-13.46,3-.54,8.21-.18,13.4,6.34,6.21,7.8,21.63,15.77,32.4,10.85l1.55,31.73C933.46,342.18,918.42,327.25,918.42,327.25Zm-45.64-.92.38-.08Z" transform="translate(8.66 -310.94)"/><rect class="cls-103" x="252.66" y="773.54" width="1397.07" height="3.52"/><polygon class="cls-104" points="649.73 671.95 642.44 741.07 616.18 742.38 614.04 660.22 649.73 671.95"/><path class="cls-1" d="M634.62,1046.89s-18.49,10.79-27.72-6.11l-67.68,35.92,105.41-.65Z" transform="translate(8.66 -310.94)"/><g class="cls-105"><path class="cls-17" d="M551.28,1055.29s26,3.89,24,36.25l-45-12.34Z" transform="translate(8.66 -310.94)"/></g><rect class="cls-106" x="539.25" y="1076.38" width="105.41" height="9.22" transform="translate(2.06 -307.3) rotate(-0.35)"/><path class="cls-17" d="M598.88,1058.35a1.71,1.71,0,0,1-.73-.55,36.79,36.79,0,0,0-8.25-8,1.63,1.63,0,0,1-.49-2.33,1.84,1.84,0,0,1,2.45-.47,39.37,39.37,0,0,1,9.15,8.87,1.63,1.63,0,0,1-.39,2.35A1.84,1.84,0,0,1,598.88,1058.35Z" transform="translate(8.66 -310.94)"/><path class="cls-17" d="M590.26,1062.66a1.77,1.77,0,0,1-.73-.55,36.56,36.56,0,0,0-8.25-8,1.62,1.62,0,0,1-.48-2.33,1.83,1.83,0,0,1,2.44-.47,39.29,39.29,0,0,1,9.16,8.87,1.63,1.63,0,0,1-.39,2.35A1.86,1.86,0,0,1,590.26,1062.66Z" transform="translate(8.66 -310.94)"/><path class="cls-17" d="M581.65,1067a1.8,1.8,0,0,1-.73-.56,36.87,36.87,0,0,0-8.25-8,1.63,1.63,0,0,1-.49-2.33,1.83,1.83,0,0,1,2.45-.47,39.37,39.37,0,0,1,9.16,8.86,1.65,1.65,0,0,1-.4,2.36A1.84,1.84,0,0,1,581.65,1067Z" transform="translate(8.66 -310.94)"/><polygon class="cls-107" points="715.19 670.8 722.48 739.92 748.75 741.24 750.88 659.07 715.19 670.8"/><path class="cls-2" d="M713,1045.75s18.5,10.78,27.73-6.12l67.68,35.92L703,1074.91Z" transform="translate(8.66 -310.94)"/><g class="cls-108"><path class="cls-17" d="M796.32,1054.15s-26,3.89-24,36.24l45-12.34Z" transform="translate(8.66 -310.94)"/></g><rect class="cls-109" x="751.03" y="1027.13" width="9.22" height="105.41" transform="translate(-320.14 1517.92) rotate(-89.65)"/><path class="cls-17" d="M748.72,1057.21a1.89,1.89,0,0,0,.73-.56,36.08,36.08,0,0,1,8.25-8,1.64,1.64,0,0,0,.49-2.34,1.85,1.85,0,0,0-2.45-.47,39.29,39.29,0,0,0-9.16,8.87,1.63,1.63,0,0,0,.4,2.35A1.87,1.87,0,0,0,748.72,1057.21Z" transform="translate(8.66 -310.94)"/><path class="cls-17" d="M757.33,1061.52a1.82,1.82,0,0,0,.73-.56,36.79,36.79,0,0,1,8.25-8,1.63,1.63,0,0,0,.49-2.33,1.84,1.84,0,0,0-2.45-.47,39.37,39.37,0,0,0-9.15,8.87,1.62,1.62,0,0,0,.39,2.35A1.87,1.87,0,0,0,757.33,1061.52Z" transform="translate(8.66 -310.94)"/><path class="cls-17" d="M765.94,1065.82a1.71,1.71,0,0,0,.73-.55,36.47,36.47,0,0,1,8.26-8,1.62,1.62,0,0,0,.48-2.33,1.83,1.83,0,0,0-2.44-.47,39.29,39.29,0,0,0-9.16,8.87,1.63,1.63,0,0,0,.39,2.35A1.84,1.84,0,0,0,765.94,1065.82Z" transform="translate(8.66 -310.94)"/><path class="cls-110" d="M730.44,661l-66-5.84-54.6-2.7L587.8,840a28.38,28.38,0,0,0,.15,7l3.61,163.42h56.13L644.43,848.3l26.12-129.39L697.31,1015H750.5Z" transform="translate(8.66 -310.94)"/><rect class="cls-111" x="593.04" y="677.47" width="70.12" height="31.77"/><polygon class="cls-112" points="769.86 709.24 699.74 709.24 696.36 677.47 766.48 677.47 769.86 709.24"/><path class="cls-113" d="M818.63,570.31,792.54,467.5l12.87-57.58a3.15,3.15,0,0,0-6.07-1.66l-5,15.54,4.89-26.37a3.12,3.12,0,0,0-1.63-3.36l-.35-.19a3.15,3.15,0,0,0-4.51,1.95l-7.35,24.48L788.81,389a3.15,3.15,0,0,0-2.52-3.33l-.92-.19a3.15,3.15,0,0,0-3.76,2.84l-4.19,29.94,0-26.07a3.15,3.15,0,0,0-2.7-2.93l-1.26-.17a3.15,3.15,0,0,0-3.59,3.08l-1.46,44-5.22-9.95a5.2,5.2,0,0,0-5.14-2.75,4.07,4.07,0,0,0-3.51,5.12l2.81,10.21a38.32,38.32,0,0,0,8.56,15.6l7.73,8.54,4.71,85.16L747,528.66l-41.56,24.73,83.83,40h0a19.86,19.86,0,0,0,29.39-23.1Z" transform="translate(8.66 -310.94)"/><path class="cls-114" d="M768.45,436.18s8.5,2,12.93,11.94" transform="translate(8.66 -310.94)"/><line class="cls-114" x1="786.9" y1="238.84" x2="788.62" y2="260.4"/><line class="cls-86" x1="743.94" y1="273.25" x2="728.68" y2="266.17"/><path class="cls-115" d="M648.93,683.74c-8.23-4.24-25.55-14.13-32.38-16.6l-27.47-38,21.65-54.13L572,561.37l-18.9,68.11c-1.37,6.89,3.32,14.35,9.58,19.59,13.51,14.72,39.54,32.9,39.54,32.9s2.11,11.13,6.41,14.91c0,0,18.6,2.9,26.58-8,0,0,6.43,3.23,12.74,1.95A3.79,3.79,0,0,0,648.93,683.74Z" transform="translate(8.66 -310.94)"/><line class="cls-114" x1="597.74" y1="318.24" x2="590.4" y2="308.1"/><path class="cls-116" d="M770.72,543.37s-19-22.42-47.06-33h0L683.9,494.72l-37.71.34-49.71,23.26s-31.35,10.47-37.81,66.13l41.74,12.43L606,662.57l124.69-1.72,4.62-76.66,12.05,5.6Z" transform="translate(8.66 -310.94)"/><line class="cls-86" x1="609.77" y1="287.34" x2="606.98" y2="256.41"/><path class="cls-117" d="M620.48,507.12s-6.32,3.38-1.36,13.2h0a12.21,12.21,0,0,1-4.29,15.77l-10.94,7a12.17,12.17,0,0,1-17.51-4.79c-2.15-4.39-3.51-9.39-1.88-13.67C588.43,514.33,611.5,502.48,620.48,507.12Z" transform="translate(8.66 -310.94)"/><path class="cls-118" d="M683.73,494.92h-.07l.24-.2-3.06-37.79s-6.64,4.68-12.69,5.84-11.93-2.36-12-2.4l-7.06-4.06-2.9,38.75.24.19H646l-11.11,5.11S634.79,519,665,518c30.95-1,30.88-18.52,30.88-18.52Z" transform="translate(8.66 -310.94)"/><path class="cls-119" d="M676.69,371.12s17.35-7.73,23.5,6.89c5.92,14.07-17.59,27.48-17.59,27.48Z" transform="translate(8.66 -310.94)"/><path class="cls-120" d="M644.24,429.47A11.77,11.77,0,1,1,632.14,418,11.77,11.77,0,0,1,644.24,429.47Z" transform="translate(8.66 -310.94)"/><path class="cls-114" d="M625.79,428.14s4.68-2.28,9.14,5.86" transform="translate(8.66 -310.94)"/><path class="cls-121" d="M687.23,429.8A11.77,11.77,0,1,0,699,418,11.77,11.77,0,0,0,687.23,429.8Z" transform="translate(8.66 -310.94)"/><path class="cls-114" d="M705.63,428s-4.74-2.15-9,6.1" transform="translate(8.66 -310.94)"/><polygon class="cls-73" points="658.25 147.98 689.61 148.34 691.58 172.18 658.25 147.98"/><path class="cls-122" d="M697.52,409.3a146.24,146.24,0,0,1-3.63,33c-1.81,8-7,13.6-14.38,18.12l-1.34.83a25.63,25.63,0,0,1-25.85.41h0c-8-4.57-13.66-10.63-15.43-19.19a213.93,213.93,0,0,1-3.65-32.8s-4.52-36,30.15-35.52S697.52,409.3,697.52,409.3Z" transform="translate(8.66 -310.94)"/><path class="cls-123" d="M653.23,419.86a2.81,2.81,0,1,1-2.8-2.8A2.8,2.8,0,0,1,653.23,419.86Z" transform="translate(8.66 -310.94)"/><circle class="cls-124" cx="686.62" cy="108.92" r="2.81"/><polyline class="cls-114" points="670.31 113.02 670.31 120.76 675.31 120.76"/><path class="cls-125" d="M640,408l18.34-1.65s-1.65-4.75-9.06-4C641.67,403.16,640,408,640,408Z" transform="translate(8.66 -310.94)"/><path class="cls-126" d="M687.23,408l-18.34-1.65s1.65-4.75,9.06-4C685.53,403.16,687.23,408,687.23,408Z" transform="translate(8.66 -310.94)"/><path class="cls-17" d="M655.37,438.11h18.09s-.85,5.54-9.31,5.54S655.37,438.11,655.37,438.11Z" transform="translate(8.66 -310.94)"/><path class="cls-127" d="M634.42,426.66s5.13-38.93,2.62-45.34C637,381.32,619.58,395.76,634.42,426.66Z" transform="translate(8.66 -310.94)"/><path class="cls-128" d="M696.22,426.35s-5.78-37.18-4.18-47.87C692,378.48,708.9,393.41,696.22,426.35Z" transform="translate(8.66 -310.94)"/><path class="cls-129" d="M690.45,386.25a21.73,21.73,0,0,1-23.65,1.46s-33.89,20.87-43.45-1.85c-8-18.95,25.13-44.66,59.28-15.69Z" transform="translate(8.66 -310.94)"/><line class="cls-86" x1="662.18" y1="403.69" x2="696.44" y2="408.04"/></g></g></svg>