<svg id="Layer_1" data-name="Layer 1" xmlns="http://www.w3.org/2000/svg" xmlns:xlink="http://www.w3.org/1999/xlink" viewBox="0 0 1928.66 559.88"><defs><style>.cls-1{opacity:0.3;fill:url(#Degradado_sin_nombre_46);}</style><linearGradient id="Degradado_sin_nombre_46" x1="-8.66" y1="800.06" x2="1920" y2="800.06" gradientUnits="userSpaceOnUse"><stop offset="0" stop-color="#aeb8ff"/><stop offset="1" stop-color="#d7daff"/></linearGradient></defs><path class="cls-1" d="M12.49,561c78.17-45.3,196.55-13.07,259.79,40.72,30.39,25.85,58.55,55.25,94.87,72.71,40,19.23,86,19.94,129.45,13.69,44.2-6.37,85.53-23.37,130-29.1,34.68-4.46,71-2.68,103.08,10.67,50.41,21,106.53,24.43,157.74,4.85,28.94-11.06,56.43-25.84,86.47-33.75,83.35-22,153.13,19.88,222.28,58.35,34.6,19.25,66,41.06,104,54.69A396,396,0,0,0,1415,776.49c70.12,3.32,158-7.1,201.4-66.54C1690,609,1787.74,532.11,1920,520.12V1080H-8.66Z" transform="translate(8.66 -520.12)"/></svg>