<svg xmlns="http://www.w3.org/2000/svg" xmlns:xlink="http://www.w3.org/1999/xlink" viewBox="0 0 1660.46 672.05"><defs><style>.cls-1{fill:url(#Degradado_sin_nombre_6);}.cls-2{fill:url(#Degradado_sin_nombre_6-2);}.cls-3{isolation:isolate;}.cls-4{opacity:0.3;fill:url(#Degradado_sin_nombre_46);}.cls-5{fill:url(#Degradado_sin_nombre_19);}.cls-6{fill:url(#Degradado_sin_nombre_19-2);}.cls-7{fill:url(#Degradado_sin_nombre_45);}.cls-8{fill:url(#Degradado_sin_nombre_202);}.cls-9{fill:url(#Degradado_sin_nombre_19-3);}.cls-10{fill:url(#Degradado_sin_nombre_45-2);}.cls-11{fill:url(#Degradado_sin_nombre_202-2);}.cls-12{fill:url(#Degradado_sin_nombre_32);}.cls-114,.cls-13,.cls-39,.cls-60,.cls-66,.cls-77,.cls-86,.cls-91,.cls-94{fill:none;}.cls-13,.cls-39{stroke:#111113;}.cls-13,.cls-39,.cls-91{stroke-miterlimit:10;}.cls-13{stroke-width:0.77px;}.cls-14{fill:url(#Degradado_sin_nombre_9);}.cls-15{fill:#ebaea3;}.cls-16{fill:url(#Degradado_sin_nombre_9-2);}.cls-17{fill:#fff;}.cls-18{fill:url(#Degradado_sin_nombre_9-3);}.cls-19{fill:url(#Degradado_sin_nombre_9-4);}.cls-20{fill:url(#Degradado_sin_nombre_202-3);}.cls-21{fill:url(#Degradado_sin_nombre_45-3);}.cls-22{fill:url(#Degradado_sin_nombre_19-4);}.cls-23{fill:url(#Degradado_sin_nombre_19-5);}.cls-24{fill:url(#Degradado_sin_nombre_19-6);}.cls-25{fill:url(#Degradado_sin_nombre_19-7);}.cls-26{fill:url(#Degradado_sin_nombre_19-8);}.cls-27{fill:#dc5368;}.cls-28{fill:url(#Degradado_sin_nombre_19-9);}.cls-29{fill:url(#Degradado_sin_nombre_9-5);}.cls-30{fill:url(#Degradado_sin_nombre_19-10);}.cls-31{fill:url(#Degradado_sin_nombre_11);}.cls-32{fill:url(#Degradado_sin_nombre_11-2);}.cls-33{fill:url(#Degradado_sin_nombre_7);}.cls-34{fill:url(#Degradado_sin_nombre_202-4);}.cls-35{fill:url(#Degradado_sin_nombre_11-3);}.cls-36{fill:url(#Degradado_sin_nombre_7-2);}.cls-37{fill:url(#Degradado_sin_nombre_202-5);}.cls-38{fill:url(#Degradado_sin_nombre_19-11);}.cls-39{stroke-width:0.75px;}.cls-40{fill:url(#Degradado_sin_nombre_202-6);}.cls-41{fill:url(#Degradado_sin_nombre_7-3);}.cls-42{fill:url(#Degradado_sin_nombre_202-7);}.cls-43{fill:url(#Degradado_sin_nombre_202-8);}.cls-44{fill:url(#Degradado_sin_nombre_11-4);}.cls-45{fill:url(#Degradado_sin_nombre_19-12);}.cls-46{fill:url(#Degradado_sin_nombre_11-5);}.cls-47{fill:url(#Degradado_sin_nombre_19-13);}.cls-48{fill:url(#Degradado_sin_nombre_202-9);}.cls-49{fill:url(#Degradado_sin_nombre_19-14);}.cls-50{fill:url(#Degradado_sin_nombre_19-15);}.cls-51{fill:url(#Degradado_sin_nombre_19-16);}.cls-52{fill:url(#Degradado_sin_nombre_19-17);}.cls-53{fill:url(#Degradado_sin_nombre_19-18);}.cls-54{fill:url(#Degradado_sin_nombre_4);}.cls-55{fill:url(#Degradado_sin_nombre_7-4);}.cls-56{fill:url(#Degradado_sin_nombre_45-4);}.cls-57{fill:url(#Degradado_sin_nombre_7-5);}.cls-58{fill:url(#Degradado_sin_nombre_45-5);}.cls-59{fill:url(#Degradado_sin_nombre_4-2);}.cls-60,.cls-77,.cls-86{stroke:#000;}.cls-114,.cls-60,.cls-66,.cls-77,.cls-86,.cls-94{stroke-linecap:round;stroke-linejoin:round;}.cls-60{stroke-width:1px;}.cls-61{fill:url(#Degradado_sin_nombre_32-2);}.cls-62{fill:url(#Degradado_sin_nombre_45-6);}.cls-63{fill:#1e0b02;}.cls-64{fill:url(#Degradado_sin_nombre_45-7);}.cls-65{fill:url(#Degradado_sin_nombre_45-8);}.cls-66{stroke:#d6967c;stroke-width:0.9px;}.cls-67{fill:url(#Degradado_sin_nombre_19-19);}.cls-68{fill:url(#Degradado_sin_nombre_9-6);}.cls-69{fill:url(#Degradado_sin_nombre_7-6);}.cls-70{fill:url(#Degradado_sin_nombre_45-9);}.cls-71{fill:url(#Degradado_sin_nombre_7-7);}.cls-72{fill:url(#Degradado_sin_nombre_19-20);}.cls-73{fill:#666;mix-blend-mode:overlay;}.cls-74{fill:url(#Degradado_sin_nombre_45-10);}.cls-75{fill:url(#Degradado_sin_nombre_19-21);}.cls-76{fill:url(#Degradado_sin_nombre_19-22);}.cls-77{stroke-width:0.52px;}.cls-78{fill:url(#Degradado_sin_nombre_19-23);}.cls-79{fill:url(#Degradado_sin_nombre_19-24);}.cls-80{fill:url(#Degradado_sin_nombre_19-25);}.cls-81{fill:url(#Degradado_sin_nombre_4-3);}.cls-82{fill:url(#Degradado_sin_nombre_24);}.cls-83{fill:url(#Degradado_sin_nombre_4-4);}.cls-84{fill:url(#Degradado_sin_nombre_24-2);}.cls-85{fill:url(#Degradado_sin_nombre_46-2);}.cls-86{stroke-width:0.95px;}.cls-87{fill:#e8b499;}.cls-88{fill:url(#Degradado_sin_nombre_18);}.cls-89{fill:url(#Degradado_sin_nombre_19-26);}.cls-90{fill:url(#Degradado_sin_nombre_18-2);}.cls-91{stroke:#fff;stroke-width:1.94px;}.cls-92{fill:url(#Degradado_sin_nombre_4-5);}.cls-93{fill:url(#Degradado_sin_nombre_16);}.cls-94{stroke:#c47268;stroke-width:0.69px;}.cls-95{fill:url(#Degradado_sin_nombre_20);}.cls-96{fill:url(#Degradado_sin_nombre_202-10);}.cls-97{fill:url(#Degradado_sin_nombre_16-2);}.cls-98{fill:url(#Degradado_sin_nombre_19-27);}.cls-99{fill:url(#Degradado_sin_nombre_19-28);}.cls-100{fill:url(#Degradado_sin_nombre_19-29);}.cls-101{fill:url(#Degradado_sin_nombre_19-30);}.cls-102{fill:url(#Degradado_sin_nombre_4-6);}.cls-103{fill:#262722;}.cls-104{fill:url(#Degradado_sin_nombre_202-11);}.cls-105{clip-path:url(#clip-path);}.cls-106{fill:url(#Degradado_sin_nombre_46-3);}.cls-107{fill:url(#Degradado_sin_nombre_202-12);}.cls-108{clip-path:url(#clip-path-2);}.cls-109{fill:url(#Degradado_sin_nombre_46-4);}.cls-110{fill:url(#Degradado_sin_nombre_7-8);}.cls-111{fill:url(#Degradado_sin_nombre_7-9);}.cls-112{fill:url(#Degradado_sin_nombre_7-10);}.cls-113{fill:url(#Degradado_sin_nombre_202-13);}.cls-114{stroke:#a8523f;stroke-width:0.75px;}.cls-115{fill:url(#Degradado_sin_nombre_202-14);}.cls-116{fill:url(#Degradado_sin_nombre_46-5);}.cls-117{fill:url(#Degradado_sin_nombre_18-3);}.cls-118{fill:url(#Degradado_sin_nombre_202-15);}.cls-119{fill:url(#Degradado_sin_nombre_19-31);}.cls-120{fill:url(#Degradado_sin_nombre_202-16);}.cls-121{fill:url(#Degradado_sin_nombre_11-6);}.cls-122{fill:url(#Degradado_sin_nombre_202-17);}.cls-123{fill:url(#Degradado_sin_nombre_19-32);}.cls-124{fill:url(#Degradado_sin_nombre_19-33);}.cls-125{fill:url(#Degradado_sin_nombre_19-34);}.cls-126{fill:url(#Degradado_sin_nombre_19-35);}.cls-127{fill:url(#Degradado_sin_nombre_19-36);}.cls-128{fill:url(#Degradado_sin_nombre_19-37);}.cls-129{fill:url(#Degradado_sin_nombre_19-38);}</style><linearGradient id="Degradado_sin_nombre_6" x1="591.03" y1="1059.81" x2="681.78" y2="1059.81" gradientUnits="userSpaceOnUse"><stop offset="0" stop-color="#3a3a3a"/><stop offset="1" stop-color="#181915"/></linearGradient><linearGradient id="Degradado_sin_nombre_6-2" x1="732.01" y1="1058.82" x2="822.76" y2="1058.82" xlink:href="#Degradado_sin_nombre_6"/><linearGradient id="Degradado_sin_nombre_46" x1="119.34" y1="837.1" x2="1779.8" y2="837.1" gradientUnits="userSpaceOnUse"><stop offset="0" stop-color="#aeb8ff"/><stop offset="1" stop-color="#d7daff"/></linearGradient><linearGradient id="Degradado_sin_nombre_19" x1="1038.28" y1="517.23" x2="1141.57" y2="517.23" gradientUnits="userSpaceOnUse"><stop offset="0" stop-color="#181915"/><stop offset="1" stop-color="#3a3a3a"/></linearGradient><linearGradient id="Degradado_sin_nombre_19-2" x1="1172.72" y1="1083.48" x2="1172.72" y2="1055.91" xlink:href="#Degradado_sin_nombre_19"/><linearGradient id="Degradado_sin_nombre_45" x1="1158.81" y1="1070.91" x2="1158.81" y2="979.26" gradientUnits="userSpaceOnUse"><stop offset="0" stop-color="#efbfab"/><stop offset="0.99" stop-color="#e2a286"/></linearGradient><linearGradient id="Degradado_sin_nombre_202" x1="1017.45" y1="614.7" x2="1041.77" y2="614.7" gradientUnits="userSpaceOnUse"><stop offset="0" stop-color="#e0a78f"/><stop offset="1" stop-color="#c67b67"/></linearGradient><linearGradient id="Degradado_sin_nombre_19-3" x1="1000.07" y1="1083.23" x2="1000.07" y2="1055.91" xlink:href="#Degradado_sin_nombre_19"/><linearGradient id="Degradado_sin_nombre_45-2" x1="1014.03" y1="1070.91" x2="1014.03" y2="979.26" xlink:href="#Degradado_sin_nombre_45"/><linearGradient id="Degradado_sin_nombre_202-2" x1="892.09" y1="613.62" x2="916.96" y2="613.62" xlink:href="#Degradado_sin_nombre_202"/><linearGradient id="Degradado_sin_nombre_32" x1="1166.44" y1="1037.13" x2="981.67" y2="717.1" gradientUnits="userSpaceOnUse"><stop offset="0" stop-color="#f68700"/><stop offset="1" stop-color="#f7b334"/></linearGradient><linearGradient id="Degradado_sin_nombre_9" x1="930.26" y1="627.75" x2="1057.64" y2="627.75" gradientUnits="userSpaceOnUse"><stop offset="0.01" stop-color="#e2a286"/><stop offset="1" stop-color="#efbfab"/></linearGradient><linearGradient id="Degradado_sin_nombre_9-2" x1="1110.4" y1="657.08" x2="1218" y2="657.08" xlink:href="#Degradado_sin_nombre_9"/><linearGradient id="Degradado_sin_nombre_9-3" x1="1091.47" y1="585.7" x2="1091.47" y2="540.98" xlink:href="#Degradado_sin_nombre_9"/><linearGradient id="Degradado_sin_nombre_9-4" x1="1046.81" y1="524.1" x2="1068.41" y2="524.1" xlink:href="#Degradado_sin_nombre_9"/><linearGradient id="Degradado_sin_nombre_202-3" x1="958.32" y1="139.24" x2="981.37" y2="139.24" xlink:href="#Degradado_sin_nombre_202"/><linearGradient id="Degradado_sin_nombre_45-3" x1="1081.68" y1="555.4" x2="1081.68" y2="480.61" xlink:href="#Degradado_sin_nombre_45"/><linearGradient id="Degradado_sin_nombre_19-4" x1="1067.07" y1="529.41" x2="1071.71" y2="529.41" xlink:href="#Degradado_sin_nombre_19"/><linearGradient id="Degradado_sin_nombre_19-5" x1="1077.16" y1="512.55" x2="1090.77" y2="512.55" xlink:href="#Degradado_sin_nombre_19"/><linearGradient id="Degradado_sin_nombre_19-6" x1="1055.13" y1="511.99" x2="1065.24" y2="511.99" xlink:href="#Degradado_sin_nombre_19"/><linearGradient id="Degradado_sin_nombre_19-7" x1="1057.92" y1="520.77" x2="1062.86" y2="520.77" xlink:href="#Degradado_sin_nombre_19"/><linearGradient id="Degradado_sin_nombre_19-8" x1="1079.6" y1="521.22" x2="1084.55" y2="521.22" xlink:href="#Degradado_sin_nombre_19"/><linearGradient id="Degradado_sin_nombre_19-9" x1="1053.56" y1="498.82" x2="1116.17" y2="498.82" xlink:href="#Degradado_sin_nombre_19"/><linearGradient id="Degradado_sin_nombre_9-5" x1="1099.76" y1="526.12" x2="1121.5" y2="526.12" xlink:href="#Degradado_sin_nombre_9"/><linearGradient id="Degradado_sin_nombre_19-10" x1="1106.14" y1="525.97" x2="1115.05" y2="525.97" xlink:href="#Degradado_sin_nombre_19"/><linearGradient id="Degradado_sin_nombre_11" x1="1366.16" y1="689.79" x2="1441.02" y2="689.79" gradientUnits="userSpaceOnUse"><stop offset="0" stop-color="#c67b67"/><stop offset="1" stop-color="#e0a78f"/></linearGradient><linearGradient id="Degradado_sin_nombre_11-2" x1="1140.72" y1="648.65" x2="1140.72" y2="579.28" xlink:href="#Degradado_sin_nombre_11"/><linearGradient id="Degradado_sin_nombre_7" x1="1190.74" y1="1060.32" x2="1280.17" y2="1060.32" gradientUnits="userSpaceOnUse"><stop offset="0" stop-color="#7627ec"/><stop offset="1" stop-color="#a46ff0"/></linearGradient><linearGradient id="Degradado_sin_nombre_202-4" x1="1126.81" y1="617.45" x2="1153.07" y2="617.45" xlink:href="#Degradado_sin_nombre_202"/><linearGradient id="Degradado_sin_nombre_11-3" x1="1253.92" y1="648.76" x2="1253.92" y2="579.39" xlink:href="#Degradado_sin_nombre_11"/><linearGradient id="Degradado_sin_nombre_7-2" x1="1355.24" y1="1060.32" x2="1444.67" y2="1060.32" xlink:href="#Degradado_sin_nombre_7"/><linearGradient id="Degradado_sin_nombre_202-5" x1="1240.34" y1="607.57" x2="1267.47" y2="607.57" xlink:href="#Degradado_sin_nombre_202"/><linearGradient id="Degradado_sin_nombre_19-11" x1="1197.86" y1="614.45" x2="1197.86" y2="304.57" xlink:href="#Degradado_sin_nombre_19"/><linearGradient id="Degradado_sin_nombre_202-6" x1="1146.95" y1="582.34" x2="1258.43" y2="582.34" xlink:href="#Degradado_sin_nombre_202"/><linearGradient id="Degradado_sin_nombre_7-3" x1="1317.26" y1="735.28" x2="1317.26" y2="549.6" xlink:href="#Degradado_sin_nombre_7"/><linearGradient id="Degradado_sin_nombre_202-7" x1="1289.75" y1="540.24" x2="1352.04" y2="540.24" xlink:href="#Degradado_sin_nombre_202"/><linearGradient id="Degradado_sin_nombre_202-8" x1="1189.16" y1="109.88" x2="1216.64" y2="109.88" xlink:href="#Degradado_sin_nombre_202"/><linearGradient id="Degradado_sin_nombre_11-4" x1="1347.24" y1="489.27" x2="1367.85" y2="489.27" xlink:href="#Degradado_sin_nombre_11"/><linearGradient id="Degradado_sin_nombre_19-12" x1="1351.05" y1="488.66" x2="1361.55" y2="488.66" xlink:href="#Degradado_sin_nombre_19"/><linearGradient id="Degradado_sin_nombre_11-5" x1="1276.12" y1="489.27" x2="1296.73" y2="489.27" xlink:href="#Degradado_sin_nombre_11"/><linearGradient id="Degradado_sin_nombre_19-13" x1="1282.43" y1="488.66" x2="1292.93" y2="488.66" xlink:href="#Degradado_sin_nombre_19"/><linearGradient id="Degradado_sin_nombre_202-9" x1="1321.91" y1="525.6" x2="1321.91" y2="438.34" xlink:href="#Degradado_sin_nombre_202"/><linearGradient id="Degradado_sin_nombre_19-14" x1="1319.04" y1="493.38" x2="1324.79" y2="493.38" xlink:href="#Degradado_sin_nombre_19"/><linearGradient id="Degradado_sin_nombre_19-15" x1="1297.31" y1="469.97" x2="1316.65" y2="469.97" xlink:href="#Degradado_sin_nombre_19"/><linearGradient id="Degradado_sin_nombre_19-16" x1="1327" y1="469.97" x2="1346.34" y2="469.97" xlink:href="#Degradado_sin_nombre_19"/><linearGradient id="Degradado_sin_nombre_19-17" x1="1330.28" y1="483.88" x2="1340.49" y2="483.88" xlink:href="#Degradado_sin_nombre_19"/><linearGradient id="Degradado_sin_nombre_19-18" x1="1301.87" y1="483.88" x2="1312.08" y2="483.88" xlink:href="#Degradado_sin_nombre_19"/><linearGradient id="Degradado_sin_nombre_4" x1="1283.99" y1="454.39" x2="1366.24" y2="454.39" gradientUnits="userSpaceOnUse"><stop offset="0" stop-color="#2d2e5a"/><stop offset="1" stop-color="#42457c"/></linearGradient><linearGradient id="Degradado_sin_nombre_7-4" x1="546.34" y1="1084.93" x2="546.34" y2="1054.86" xlink:href="#Degradado_sin_nombre_7"/><linearGradient id="Degradado_sin_nombre_45-4" x1="538.43" y1="1071.37" x2="538.43" y2="973.17" xlink:href="#Degradado_sin_nombre_45"/><linearGradient id="Degradado_sin_nombre_7-5" x1="467.77" y1="1084.93" x2="467.77" y2="1054.86" xlink:href="#Degradado_sin_nombre_7"/><linearGradient id="Degradado_sin_nombre_45-5" x1="475.68" y1="1071.37" x2="475.68" y2="973.17" xlink:href="#Degradado_sin_nombre_45"/><linearGradient id="Degradado_sin_nombre_4-2" x1="502.66" y1="1027.1" x2="502.66" y2="682.7" xlink:href="#Degradado_sin_nombre_4"/><linearGradient id="Degradado_sin_nombre_32-2" x1="500.65" y1="681.33" x2="500.65" y2="571.26" xlink:href="#Degradado_sin_nombre_32"/><linearGradient id="Degradado_sin_nombre_45-6" x1="571.98" y1="641.32" x2="668.31" y2="641.32" xlink:href="#Degradado_sin_nombre_45"/><linearGradient id="Degradado_sin_nombre_45-7" x1="498.99" y1="584.86" x2="498.99" y2="538.1" xlink:href="#Degradado_sin_nombre_45"/><linearGradient id="Degradado_sin_nombre_45-8" x1="337.8" y1="608.49" x2="425" y2="608.49" xlink:href="#Degradado_sin_nombre_45"/><linearGradient id="Degradado_sin_nombre_19-19" x1="380.96" y1="55" x2="380.96" y2="13.53" xlink:href="#Degradado_sin_nombre_19"/><linearGradient id="Degradado_sin_nombre_9-6" x1="525.35" y1="515.26" x2="540.97" y2="515.26" xlink:href="#Degradado_sin_nombre_9"/><linearGradient id="Degradado_sin_nombre_7-6" x1="520.37" y1="531.92" x2="536.2" y2="531.92" xlink:href="#Degradado_sin_nombre_7"/><linearGradient id="Degradado_sin_nombre_45-9" x1="459.64" y1="515.26" x2="475.26" y2="515.26" xlink:href="#Degradado_sin_nombre_45"/><linearGradient id="Degradado_sin_nombre_7-7" x1="464.41" y1="531.92" x2="480.49" y2="531.92" xlink:href="#Degradado_sin_nombre_7"/><linearGradient id="Degradado_sin_nombre_19-20" x1="380.77" y1="111.15" x2="380.77" y2="42.76" xlink:href="#Degradado_sin_nombre_19"/><linearGradient id="Degradado_sin_nombre_45-10" x1="500" y1="543.2" x2="500" y2="466.63" xlink:href="#Degradado_sin_nombre_45"/><linearGradient id="Degradado_sin_nombre_19-21" x1="513.21" y1="511.43" x2="513.21" y2="506.36" xlink:href="#Degradado_sin_nombre_19"/><linearGradient id="Degradado_sin_nombre_19-22" x1="487.87" y1="511.43" x2="487.87" y2="506.36" xlink:href="#Degradado_sin_nombre_19"/><linearGradient id="Degradado_sin_nombre_19-23" x1="486.93" y1="500.9" x2="486.93" y2="494.4" xlink:href="#Degradado_sin_nombre_19"/><linearGradient id="Degradado_sin_nombre_19-24" x1="516.01" y1="500.72" x2="516.01" y2="494.66" xlink:href="#Degradado_sin_nombre_19"/><linearGradient id="Degradado_sin_nombre_19-25" x1="499.75" y1="491.42" x2="499.75" y2="462.86" xlink:href="#Degradado_sin_nombre_19"/><linearGradient id="Degradado_sin_nombre_4-3" x1="677.36" y1="642.64" x2="761.66" y2="642.64" xlink:href="#Degradado_sin_nombre_4"/><linearGradient id="Degradado_sin_nombre_24" x1="740.92" y1="629.53" x2="740.92" y2="587.73" gradientUnits="userSpaceOnUse"><stop offset="0" stop-color="#e89f8e"/><stop offset="1" stop-color="#d6816e"/></linearGradient><linearGradient id="Degradado_sin_nombre_4-4" x1="803.81" y1="642.64" x2="888.11" y2="642.64" xlink:href="#Degradado_sin_nombre_4"/><linearGradient id="Degradado_sin_nombre_24-2" x1="822.93" y1="629.53" x2="822.93" y2="587.73" xlink:href="#Degradado_sin_nombre_24"/><linearGradient id="Degradado_sin_nombre_46-2" x1="901.52" y1="1033.47" x2="901.52" y2="688.37" xlink:href="#Degradado_sin_nombre_46"/><linearGradient id="Degradado_sin_nombre_18" x1="979.37" y1="778.22" x2="999.76" y2="778.22" gradientUnits="userSpaceOnUse"><stop offset="0" stop-color="#d6816e"/><stop offset="0.65" stop-color="#e19381"/><stop offset="1" stop-color="#e89f8e"/></linearGradient><linearGradient id="Degradado_sin_nombre_19-26" x1="878.82" y1="755.11" x2="878.82" y2="537.13" xlink:href="#Degradado_sin_nombre_19"/><linearGradient id="Degradado_sin_nombre_18-2" x1="892.77" y1="551.06" x2="892.77" y2="497.04" xlink:href="#Degradado_sin_nombre_18"/><linearGradient id="Degradado_sin_nombre_4-5" x1="891.56" y1="461.01" x2="891.56" y2="416" xlink:href="#Degradado_sin_nombre_4"/><linearGradient id="Degradado_sin_nombre_16" x1="854.51" y1="474.22" x2="874.78" y2="474.22" gradientUnits="userSpaceOnUse"><stop offset="0" stop-color="#e89f8e"/><stop offset="0.51" stop-color="#e79d8c"/><stop offset="0.74" stop-color="#e39685"/><stop offset="0.91" stop-color="#dc8a78"/><stop offset="1" stop-color="#d6816e"/></linearGradient><linearGradient id="Degradado_sin_nombre_20" x1="911.78" y1="474.22" x2="932.05" y2="474.22" gradientUnits="userSpaceOnUse"><stop offset="0" stop-color="#d6816e"/><stop offset="1" stop-color="#e89f8e"/></linearGradient><linearGradient id="Degradado_sin_nombre_202-10" x1="759.96" y1="91.74" x2="788.66" y2="91.74" xlink:href="#Degradado_sin_nombre_202"/><linearGradient id="Degradado_sin_nombre_16-2" x1="892.89" y1="504.46" x2="892.89" y2="426.28" xlink:href="#Degradado_sin_nombre_16"/><linearGradient id="Degradado_sin_nombre_19-27" x1="877.68" y1="465.67" x2="882.52" y2="465.67" xlink:href="#Degradado_sin_nombre_19"/><linearGradient id="Degradado_sin_nombre_19-28" x1="901.38" y1="465.67" x2="906.22" y2="465.67" xlink:href="#Degradado_sin_nombre_19"/><linearGradient id="Degradado_sin_nombre_19-29" x1="871.1" y1="453" x2="886.88" y2="453" xlink:href="#Degradado_sin_nombre_19"/><linearGradient id="Degradado_sin_nombre_19-30" x1="896" y1="453" x2="911.78" y2="453" xlink:href="#Degradado_sin_nombre_19"/><linearGradient id="Degradado_sin_nombre_4-6" x1="891.3" y1="471.25" x2="891.3" y2="421.85" xlink:href="#Degradado_sin_nombre_4"/><linearGradient id="Degradado_sin_nombre_202-11" x1="544.02" y1="639.15" x2="544.02" y2="568.41" xlink:href="#Degradado_sin_nombre_202"/><clipPath id="clip-path" transform="translate(-119.34 -416)"><path class="cls-1" d="M673.17,1049.61s-15.93,9.28-23.87-5.27L591,1075.27l90.75-.55Z"/></clipPath><linearGradient id="Degradado_sin_nombre_46-3" x1="636.43" y1="1083.21" x2="636.43" y2="1074.72" gradientTransform="translate(6.61 -3.87) rotate(0.35)" xlink:href="#Degradado_sin_nombre_46"/><linearGradient id="Degradado_sin_nombre_202-12" x1="631.09" y1="638.16" x2="631.09" y2="567.42" xlink:href="#Degradado_sin_nombre_202"/><clipPath id="clip-path-2" transform="translate(-119.34 -416)"><path class="cls-2" d="M740.62,1048.62s15.92,9.29,23.87-5.26l58.27,30.92-90.75-.55Z"/></clipPath><linearGradient id="Degradado_sin_nombre_46-4" x1="777.35" y1="1082.22" x2="777.35" y2="1073.73" gradientTransform="translate(1850.55 294.04) rotate(89.65)" xlink:href="#Degradado_sin_nombre_46"/><linearGradient id="Degradado_sin_nombre_7-8" x1="702.83" y1="1022.15" x2="702.83" y2="710.07" xlink:href="#Degradado_sin_nombre_7"/><linearGradient id="Degradado_sin_nombre_7-9" x1="540.75" y1="610.61" x2="540.75" y2="583.26" xlink:href="#Degradado_sin_nombre_7"/><linearGradient id="Degradado_sin_nombre_7-10" x1="631.16" y1="610.61" x2="631.16" y2="583.26" xlink:href="#Degradado_sin_nombre_7"/><linearGradient id="Degradado_sin_nombre_202-13" x1="734.11" y1="570.98" x2="832.47" y2="570.98" xlink:href="#Degradado_sin_nombre_202"/><linearGradient id="Degradado_sin_nombre_202-14" x1="602.8" y1="690.09" x2="687.25" y2="690.09" xlink:href="#Degradado_sin_nombre_202"/><linearGradient id="Degradado_sin_nombre_46-5" x1="699.06" y1="718.73" x2="699.06" y2="574.23" xlink:href="#Degradado_sin_nombre_46"/><linearGradient id="Degradado_sin_nombre_18-3" x1="629.39" y1="600.79" x2="660.99" y2="600.79" xlink:href="#Degradado_sin_nombre_18"/><linearGradient id="Degradado_sin_nombre_202-15" x1="699.65" y1="594.31" x2="699.65" y2="541.15" xlink:href="#Degradado_sin_nombre_202"/><linearGradient id="Degradado_sin_nombre_19-31" x1="709.38" y1="481.73" x2="730.44" y2="481.73" xlink:href="#Degradado_sin_nombre_19"/><linearGradient id="Degradado_sin_nombre_202-16" x1="661.18" y1="518.33" x2="681.45" y2="518.33" xlink:href="#Degradado_sin_nombre_202"/><linearGradient id="Degradado_sin_nombre_11-6" x1="718.45" y1="518.33" x2="738.72" y2="518.33" xlink:href="#Degradado_sin_nombre_11"/><linearGradient id="Degradado_sin_nombre_202-17" x1="699.57" y1="548.56" x2="699.57" y2="470.38" xlink:href="#Degradado_sin_nombre_202"/><linearGradient id="Degradado_sin_nombre_19-32" x1="684.36" y1="509.78" x2="689.19" y2="509.78" xlink:href="#Degradado_sin_nombre_19"/><linearGradient id="Degradado_sin_nombre_19-33" x1="588.72" y1="93.78" x2="593.55" y2="93.78" xlink:href="#Degradado_sin_nombre_19"/><linearGradient id="Degradado_sin_nombre_19-34" x1="677.77" y1="497.11" x2="693.56" y2="497.11" xlink:href="#Degradado_sin_nombre_19"/><linearGradient id="Degradado_sin_nombre_19-35" x1="702.67" y1="497.11" x2="718.45" y2="497.11" xlink:href="#Degradado_sin_nombre_19"/><linearGradient id="Degradado_sin_nombre_19-36" x1="667.85" y1="496.11" x2="675.85" y2="496.11" xlink:href="#Degradado_sin_nombre_19"/><linearGradient id="Degradado_sin_nombre_19-37" x1="722.36" y1="494.75" x2="730.27" y2="494.75" xlink:href="#Degradado_sin_nombre_19"/><linearGradient id="Degradado_sin_nombre_19-38" x1="662.42" y1="472.7" x2="721.23" y2="472.7" xlink:href="#Degradado_sin_nombre_19"/></defs><g class="cls-3"><g id="Layer_1" data-name="Layer 1"><path class="cls-4" d="M137.55,631.29c67.3-39,169.22-11.25,223.66,35.07,26.16,22.25,50.41,47.56,81.67,62.59,34.45,16.56,74.08,17.17,111.46,11.78,38-5.48,73.64-20.11,111.93-25,29.86-3.85,61.12-2.31,88.75,9.18,43.4,18,91.72,21,135.81,4.18,24.91-9.52,48.58-22.25,74.44-29.06,71.76-18.91,131.84,17.12,191.37,50.23,29.79,16.57,56.83,35.35,89.55,47.09a341.2,341.2,0,0,0,98.79,19.5c60.37,2.86,136-6.11,173.39-57.29,63.39-86.9,147.56-153.11,261.43-163.43v482H119.34Z" transform="translate(-119.34 -416)"/><path class="cls-5" d="M1076.21,477.81s-23.23,1.16-25.45,26.7c-1.65,19.06,2,27.6-12.48,42.85,0,0,42.43,25,103.29,6.63,0,0-11.44-19.74-11.13-38.49s-5-27-14.82-34.07S1086,470.14,1076.21,477.81Z" transform="translate(-119.34 -416)"/><path class="cls-6" d="M1188.37,1066.47l17.8,8.78a4.45,4.45,0,0,1,2.45,5.09c-.47,1.6-2,3.07-5.94,3.14-8.8.16-47.76-5.91-47.76-5.91v4.4h-18.13s-1.21-23,4.29-26.06Z" transform="translate(-119.34 -416)"/><path class="cls-7" d="M1162.46,1047.8,1157.93,982l-28.67-2.72,11.82,76.65s17,7.93,30.62,13.19,16.67-2.63,16.67-2.63Z" transform="translate(-119.34 -416)"/><polygon class="cls-8" points="1041.77 612.07 1018.26 617.32 1017.45 612.07 1041.77 612.07"/><path class="cls-9" d="M984.48,1066.47l-17.81,8.78a4.45,4.45,0,0,0-2.44,5.09c.46,1.6,2,2.82,5.94,2.89,8.81.15,47.76-5.66,47.76-5.66v4.4h18s1.34-23-4.17-26.06Z" transform="translate(-119.34 -416)"/><path class="cls-10" d="M1014.91,982l-4.53,65.82-25.9,18.67s3.07,7.89,16.66,2.63,30.62-13.19,30.62-13.19l11.82-76.65Z" transform="translate(-119.34 -416)"/><polygon class="cls-11" points="916.96 610.53 892.5 610.7 892.09 616.7 916.96 610.53"/><path class="cls-12" d="M1111.59,674.84s24.59,8,42.76,91.32,24.58,200,27.78,261.91h-65.77L1081.92,770.2l-16.27,256.13-66,.45s3.81-323.87,55.24-351.94Z" transform="translate(-119.34 -416)"/><line class="cls-13" x1="962.58" y1="354.2" x2="945.23" y2="347.61"/><line class="cls-13" x1="1061.24" y1="583.09" x2="994.11" y2="583.09"/><line class="cls-13" x1="947.33" y1="583.09" x2="881.25" y2="583.09"/><path class="cls-14" d="M1029,591c-10.67,16.6-43.17,42.4-93.37,59.79l-5.35,31s85.41-21.38,119.13-56.41l8.25-51.59A38.12,38.12,0,0,0,1029,591Z" transform="translate(-119.34 -416)"/><path class="cls-15" d="M1054.87,674.84c-1,1.31,56.72,0,56.72,0v-8.5l-57.07.16S1055.85,673.53,1054.87,674.84Z" transform="translate(-119.34 -416)"/><path class="cls-16" d="M1218,671.48a17.64,17.64,0,0,0-2.59-9L1173.72,611c-14.63-27.59-37-27.39-37-27.39l-19.56,3.24L1110.4,618l16.24,16.73a92.28,92.28,0,0,0,5.78-10.64l44.32,45.25L1124.85,706l-11.78-3.06,14.18,27.65,13.91-8.61-.28-.31,65.35-33A17.29,17.29,0,0,0,1218,671.48Z" transform="translate(-119.34 -416)"/><line class="cls-13" x1="990.47" y1="280.45" x2="1012.09" y2="322.72"/><path class="cls-17" d="M1116.61,578.26l20.07,5.35s-16.94,19.25-10,51.14l-15.05,31.59-57.07.16-12.23-37.73c-3.36-10.37-5.93-21.34-.82-31l13-23.92,12.52-.53Z" transform="translate(-119.34 -416)"/><path class="cls-18" d="M1103.81,574.12,1102.06,541l-24.34,10.27.16,20-13.82,1.86s7.42,24,54.82,5.73Z" transform="translate(-119.34 -416)"/><path class="cls-19" d="M1068.41,523.93a10.8,10.8,0,1,1-11-10.63A10.8,10.8,0,0,1,1068.41,523.93Z" transform="translate(-119.34 -416)"/><polygon class="cls-20" points="958.5 148.83 981.37 129.64 958.32 133.12 958.5 148.83"/><path class="cls-21" d="M1078.42,555.4h0c-13.79-.71-24.7-13.3-24.5-24.58l.58-24.46a26.2,26.2,0,0,1,25.8-25.74h0c14.48-.22,28.93,11.29,29.15,25.76l-.74,21.4C1108.14,544.33,1095,555.15,1078.42,555.4Z" transform="translate(-119.34 -416)"/><path class="cls-22" d="M1071,532.75h-.07l-1.9-.17a2.14,2.14,0,0,1-1.91-2.5l.6-3.41a.73.73,0,1,1,1.44.25l-.6,3.41a.67.67,0,0,0,.13.53.68.68,0,0,0,.47.26l1.9.17a.74.74,0,0,1,.66.8A.72.72,0,0,1,1071,532.75Z" transform="translate(-119.34 -416)"/><path class="cls-23" d="M1083.2,510.53s-5.85-.8-6,1.59c0,0-.08,1.63,5,2.22s8,.55,8.54-.94S1086,510.7,1083.2,510.53Z" transform="translate(-119.34 -416)"/><path class="cls-24" d="M1060.08,510.15s4.88-.24,5.16,2c0,0,.14,1.53-4.12,1.65s-5.63-.51-6-1.76C1054.78,510.66,1057.77,510.06,1060.08,510.15Z" transform="translate(-119.34 -416)"/><path class="cls-25" d="M1062.86,520.82a2.47,2.47,0,1,1-2.42-2.52A2.47,2.47,0,0,1,1062.86,520.82Z" transform="translate(-119.34 -416)"/><path class="cls-26" d="M1084.55,521.27a2.48,2.48,0,1,1-2.42-2.53A2.48,2.48,0,0,1,1084.55,521.27Z" transform="translate(-119.34 -416)"/><path class="cls-27" d="M1064.32,536.43l14.7-1s-2.47,2.71-9.23,2.71C1065.45,538.16,1064.32,536.43,1064.32,536.43Z" transform="translate(-119.34 -416)"/><path class="cls-28" d="M1111,490.36c-11.6-11.15-20.58-12.48-20.58-12.48l-16.88.36a25,25,0,0,0-5.07,3.07c-.72.22-1.52.48-2.49.82-10.39,3.72-14.44,17.3-11.49,24.23a67,67,0,0,0,12-11.12c6.78,9.66,25.58,21.09,44.48,24.51C1111,519.75,1122.61,501.52,1111,490.36Z" transform="translate(-119.34 -416)"/><path class="cls-29" d="M1121.5,526a10.87,10.87,0,1,1-11-10.71A10.86,10.86,0,0,1,1121.5,526Z" transform="translate(-119.34 -416)"/><path class="cls-30" d="M1106.88,530.14a.74.74,0,0,1-.74-.72c0-.16,0-3.94,2.47-6.13a6.9,6.9,0,0,1,5.82-1.37.74.74,0,0,1-.22,1.46,5.5,5.5,0,0,0-4.62,1c-2,1.74-2,5-2,5a.74.74,0,0,1-.73.74Z" transform="translate(-119.34 -416)"/><path class="cls-31" d="M1431.37,646.27l-28.75-49-36.46,19,38.39,57.21L1372,737.17c-1.8,2.29-3.55,6.55-4.08,14.46-1.2,17.94-5.7,29.75,6.6,30.59s33.32-9.45,19-23.91L1389,745.4l46.12-58C1445.11,675.78,1441.45,663.6,1431.37,646.27Z" transform="translate(-119.34 -416)"/><polygon class="cls-32" points="1126.35 647.05 1127.27 580.7 1155.09 579.28 1151.11 648.65 1126.35 647.05 1126.35 647.05"/><path class="cls-33" d="M1273.57,1051.62s-21.24,9.2-31.23-5.28l-51.6,28,89.43-.6Z" transform="translate(-119.34 -416)"/><rect class="cls-17" x="1190.77" y="1074.01" width="89.43" height="7.9" transform="translate(2358.82 1731.61) rotate(179.62)"/><polygon class="cls-34" points="1153.07 614.3 1152.7 620.83 1126.81 614.07 1153.07 614.3"/><polygon class="cls-35" points="1271.93 647.16 1263.72 580.8 1235.9 579.39 1247.17 648.76 1271.93 647.16 1271.93 647.16"/><path class="cls-36" d="M1361.84,1051.62s21.24,9.2,31.23-5.28l51.6,28-89.43-.6Z" transform="translate(-119.34 -416)"/><rect class="cls-17" x="1355.21" y="1074.01" width="89.43" height="7.9" transform="translate(-112.09 -425.35) rotate(0.38)"/><polygon class="cls-37" points="1240.34 606.69 1267.47 611.09 1266.6 604.06 1240.34 606.69"/><polygon class="cls-38" points="1132.11 304.57 1111.46 613.95 1172.69 614.45 1194.19 352.44 1217.55 608.98 1284.25 602.29 1252.45 304.57 1132.11 304.57"/><line class="cls-39" x1="1194.19" y1="352.44" x2="1215.86" y2="344.65"/><path class="cls-40" d="M1225,601.58l-14.54,18.64-20-67c1.83-3.13,5.57-11.63,4.81-27.88a3.31,3.31,0,0,0-6.52-.6l-3.78,9.14-3.68-29.38c-.19-1.25-1.2-2.93-2.8-2.83a2.68,2.68,0,0,0-2.87,2.7l1.44,20.95-6.35-24a2.25,2.25,0,0,0-4.41.91l3.94,26.37-7.51-21.24a2.52,2.52,0,0,0-4.83,1.37l5.14,23.62L1151,518.49a2.37,2.37,0,0,0-3.56,3.11l10.7,17.11s1.54,10,11.3,19.41l9.83,82.53c-.06,20.66,24,32,39.91,18.77l39.27-34.54Z" transform="translate(-119.34 -416)"/><path class="cls-41" d="M1413.74,605.27c-19-50.55-51.52-53.67-51.52-53.67v0c-.29,0-.57-.1-.87-.12l-25.73-1.29L1268,549.6s-13.38,1.94-23.53,15-23.72,37.32-23.72,37.32l34.93,35.92-6.51,82.66,128.24,14.78-5-99.25Z" transform="translate(-119.34 -416)"/><line class="cls-39" x1="1251.19" y1="181.3" x2="1252.88" y2="219.06"/><line class="cls-39" x1="1136.36" y1="221.84" x2="1139.4" y2="183.19"/><path class="cls-42" d="M1336.4,549.71c0-.2,0-.4,0-.6l-1.42-35-27.51-.78L1306,549.6h0l-16.26.2s-1.75,16.47,30,17.28S1352,550.85,1352,550.85Z" transform="translate(-119.34 -416)"/><polygon class="cls-43" points="1189.16 105.44 1216.64 121.6 1215.68 98.16 1189.16 105.44"/><path class="cls-44" d="M1367.85,489.27a10.31,10.31,0,1,1-10.3-10.3A10.31,10.31,0,0,1,1367.85,489.27Z" transform="translate(-119.34 -416)"/><path class="cls-45" d="M1351.77,492.24a.7.7,0,0,1-.43-.15.72.72,0,0,1-.15-1c.06-.08.14-.24.25-.44.83-1.57,3.36-6.34,9.49-5.44a.72.72,0,0,1,.61.82.7.7,0,0,1-.82.61c-5.12-.75-7.14,3.06-8,4.69a5.2,5.2,0,0,1-.37.62A.7.7,0,0,1,1351.77,492.24Z" transform="translate(-119.34 -416)"/><path class="cls-46" d="M1276.12,489.27a10.31,10.31,0,1,0,10.31-10.3A10.32,10.32,0,0,0,1276.12,489.27Z" transform="translate(-119.34 -416)"/><path class="cls-47" d="M1292.2,492.24a.7.7,0,0,1-.58-.3,4.29,4.29,0,0,1-.36-.62c-.87-1.63-2.86-5.45-8-4.69a.71.71,0,0,1-.83-.61.72.72,0,0,1,.62-.82c6.12-.9,8.66,3.87,9.49,5.44.11.2.18.36.24.44a.71.71,0,0,1-.15,1A.7.7,0,0,1,1292.2,492.24Z" transform="translate(-119.34 -416)"/><path class="cls-48" d="M1354,470.86a143.46,143.46,0,0,1-3.79,32.51c-1.86,7.87-7.08,13.38-14.46,17.81l-1.32.8a25.7,25.7,0,0,1-25.84.28h0c-8-4.55-13.59-10.56-15.31-19a209.87,209.87,0,0,1-3.48-32.39s-3-33.16,31.65-32.51S1354,470.86,1354,470.86Z" transform="translate(-119.34 -416)"/><path class="cls-49" d="M1321.44,497.11a2.38,2.38,0,0,1-1.49-.53,2.45,2.45,0,0,1-.91-1.91v-4.29a.73.73,0,0,1,.73-.73h0a.73.73,0,0,1,.73.73v4.29a1,1,0,0,0,.37.77.88.88,0,0,0,.75.19l2.29-.48a.72.72,0,0,1,.86.56.73.73,0,0,1-.56.87l-2.29.48A2.7,2.7,0,0,1,1321.44,497.11Z" transform="translate(-119.34 -416)"/><path class="cls-50" d="M1316.65,470.7,1297.31,473s1.55-5.11,9.45-6S1316.65,470.7,1316.65,470.7Z" transform="translate(-119.34 -416)"/><path class="cls-51" d="M1327,470.7l19.34,2.32s-1.55-5.11-9.45-6S1327,470.7,1327,470.7Z" transform="translate(-119.34 -416)"/><path class="cls-17" d="M1310.51,501.37h20.31s-1.61,5.24-10.16,5.24A11.79,11.79,0,0,1,1310.51,501.37Z" transform="translate(-119.34 -416)"/><path class="cls-52" d="M1339.38,485.91a1.09,1.09,0,0,1-.77-.32,4.54,4.54,0,0,0-3.15-1.53h0a5.13,5.13,0,0,0-3.22,1.5,1.1,1.1,0,0,1-1.62-1.5,7.27,7.27,0,0,1,4.78-2.2h.11a6.59,6.59,0,0,1,4.7,2.17,1.1,1.1,0,0,1-.78,1.88Z" transform="translate(-119.34 -416)"/><path class="cls-53" d="M1311,485.91a1.13,1.13,0,0,1-.78-.32,4.5,4.5,0,0,0-3.15-1.53h0a5.2,5.2,0,0,0-3.22,1.5,1.1,1.1,0,0,1-1.61-1.5,7.27,7.27,0,0,1,4.77-2.2,6.37,6.37,0,0,1,4.82,2.17,1.1,1.1,0,0,1,0,1.56A1.13,1.13,0,0,1,1311,485.91Z" transform="translate(-119.34 -416)"/><path class="cls-54" d="M1366.24,454.44l-7-6.25,5.33-1.87c-2.45-3.95-12-8-12-8l4.94-.89s-8-14.47-35.17-12.8-28.8,20.89-28.8,20.89v.09c-1.57.52-19.49,7.24-1.89,38.75,0,0,4.63-14.95,3.84-28.74,1.34-2,6.94-9.24,16-4.19,8.49,4.72,16.89,9.23,29.7,8.37a53.06,53.06,0,0,0,6-.47c.64,12.63,5.49,25,5.49,25,5.68-12.81,6.54-21.47,5.39-27.29C1362.91,455.73,1366.24,454.44,1366.24,454.44Z" transform="translate(-119.34 -416)"/><path class="cls-55" d="M561.76,1066.48l17.57,9.67a5.08,5.08,0,0,1,2.41,5.6c-.46,1.76-2,3.1-5.87,3.18-8.68.17-47.12-6.23-47.12-6.23v4.5L510.92,1081s-1.25-22.76,4.18-26.09Z" transform="translate(-119.34 -416)"/><path class="cls-56" d="M538.43,1047.44V973.17l-23.33,1.9,2.45,69.74-2.45,10s16.8,8.73,30.22,14.52,16.44-2.9,16.44-2.9Z" transform="translate(-119.34 -416)"/><path class="cls-57" d="M452.36,1066.48l-17.57,9.67a5.08,5.08,0,0,0-2.41,5.6c.45,1.76,1.95,3.1,5.86,3.18,8.69.17,47.12-6.23,47.12-6.23v4.5L503.2,1081s1.24-22.76-4.19-26.09Z" transform="translate(-119.34 -416)"/><path class="cls-58" d="M496.56,1044.81l-1.78-69.74-23.33-1.9,3.87,74.57-23,18.74s3,8.69,16.44,2.9S499,1054.86,499,1054.86Z" transform="translate(-119.34 -416)"/><path class="cls-59" d="M534.29,690.22s28.12,17.8,22.56,99.08-14.14,237.8-14.14,237.8H514l-9.71-268.25-4.7-.2.13,268.45H471L448.48,783.23s-6.61-54.23,20-93C464.68,692.7,503,672.13,534.29,690.22Z" transform="translate(-119.34 -416)"/><line class="cls-60" x1="397.69" y1="342.83" x2="368.85" y2="344.15"/><path class="cls-61" d="M598.42,650.41a501.54,501.54,0,0,1-27.51-51.5c-6.35-14.09-14.5-19-20.75-20.55h0L527,572.89l-56-1.63-20.68,5.51c-6.43.73-16.12,4.81-23.42,21-11.93,26.48-24,56.75-24,56.75l22.14,6,28.72-42.66c7.19,30.7,14.72,63.5,14.72,63.5,32.41-5.53,65.84,0,65.84,0,2.94-15.82,6.65-39.67,9.74-60.43l28.76,40.71Z" transform="translate(-119.34 -416)"/><line class="cls-60" x1="424.69" y1="204.9" x2="425.95" y2="192.37"/><path class="cls-62" d="M660.86,610.22l7.45,11L595.56,670a15.29,15.29,0,0,1-22.67-7.66h0A15.29,15.29,0,0,1,581.44,643Z" transform="translate(-119.34 -416)"/><path class="cls-63" d="M534.29,681.33v8.89s-32.92-3.72-65.84,0v-8.89l33-9.56Z" transform="translate(-119.34 -416)"/><path class="cls-64" d="M511.84,566,510,538.49l-18.31-.39-2.56,26.33L471,571.26s3,13.64,27,13.6c28.19-.05,29-12,29-12Z" transform="translate(-119.34 -416)"/><line class="cls-60" x1="334.91" y1="202.56" x2="332.72" y2="190.94"/><path class="cls-65" d="M423.61,651.54,388,573.6a19.35,19.35,0,0,0-.39-3l-.73-3.37a29.6,29.6,0,0,0-6-12.35l-5.14-6.32a3.14,3.14,0,0,0-4.79-.09,4,4,0,0,0-.56,4.45l3.9,7.73-24.93-16.4a2.42,2.42,0,0,0-3.53.87l-.46.87a2.43,2.43,0,0,0,.63,3l16.37,11.63-20.65-10.76a2.43,2.43,0,0,0-3.47,1.09l-.29.66a2.42,2.42,0,0,0,1,3.06L356.7,565.2l-15.21-5a2.42,2.42,0,0,0-3.24,2l0,.31a2.42,2.42,0,0,0,1.38,2.52L355,571.31l-8.68-1.44a2.42,2.42,0,0,0-1.68,4.54l33,13.12,17.28,74.1a15.29,15.29,0,0,0,21.8,9.87h0A15.29,15.29,0,0,0,423.61,651.54Z" transform="translate(-119.34 -416)"/><path class="cls-66" d="M374.35,560.63s-2.57,6.21,1.7,13.45" transform="translate(-119.34 -416)"/><circle class="cls-67" cx="380.96" cy="34.26" r="20.73"/><path class="cls-68" d="M529.69,507.49s5.48-4.26,9.49.8c6.09,7.68-4.57,21.6-13.83,14.43Z" transform="translate(-119.34 -416)"/><path d="M528.86,518.62a.42.42,0,0,1-.22,0,.48.48,0,0,1-.21-.65c3.46-6.74,6.8-5.77,7-5.73a.48.48,0,0,1,.32.6.49.49,0,0,1-.6.32c-.06,0-2.79-.65-5.82,5.25A.46.46,0,0,1,528.86,518.62Z" transform="translate(-119.34 -416)"/><path class="cls-69" d="M528.37,542.2c-3.58,0-7.47-3.68-8-10.72a1,1,0,0,1,.88-1,1,1,0,0,1,1,.89c.43,5.81,3.45,8.94,6.08,8.94,3.26,0,5.91-3.75,5.91-8.36s-2.65-8.36-5.91-8.36a1,1,0,1,1,0-1.91c4.31,0,7.83,4.61,7.83,10.27S532.68,542.2,528.37,542.2Z" transform="translate(-119.34 -416)"/><path class="cls-70" d="M470.91,507.49s-5.48-4.26-9.48.8c-6.09,7.68,4.56,21.6,13.83,14.43Z" transform="translate(-119.34 -416)"/><path d="M471.75,518.62a.49.49,0,0,1-.43-.26c-3.05-5.94-5.78-5.26-5.81-5.25a.49.49,0,0,1-.6-.33.48.48,0,0,1,.31-.59c.15,0,3.5-1,7,5.73a.48.48,0,0,1-.21.65A.44.44,0,0,1,471.75,518.62Z" transform="translate(-119.34 -416)"/><path class="cls-71" d="M472.24,542.2c-4.32,0-7.83-4.61-7.83-10.28s3.51-10.27,7.83-10.27a1,1,0,1,1,0,1.91c-3.26,0-5.91,3.75-5.91,8.36s2.65,8.36,5.91,8.36c2.55,0,6.34-4,6.34-9.54a1,1,0,1,1,1.91,0C480.49,537.09,476,542.2,472.24,542.2Z" transform="translate(-119.34 -416)"/><ellipse class="cls-72" cx="380.77" cy="76.96" rx="35.07" ry="34.2"/><path class="cls-73" d="M490.87,541.17c.8.44,20.22,14.15,20.22,14.15L510,538.2Z" transform="translate(-119.34 -416)"/><path class="cls-74" d="M529.75,490.4s3.69,52.8-28.43,52.8c-34.74,0-31.09-52.8-31.09-52.8s.19-23.77,30-23.77C527.6,466.63,529.75,490.4,529.75,490.4Z" transform="translate(-119.34 -416)"/><path class="cls-75" d="M510.67,508.89a2.54,2.54,0,1,0,2.54-2.53A2.54,2.54,0,0,0,510.67,508.89Z" transform="translate(-119.34 -416)"/><path class="cls-76" d="M485.33,508.89a2.54,2.54,0,1,0,2.54-2.53A2.54,2.54,0,0,0,485.33,508.89Z" transform="translate(-119.34 -416)"/><path class="cls-17" d="M509.62,524.36h-16s1.08,4.06,7.91,4.06S509.62,524.36,509.62,524.36Z" transform="translate(-119.34 -416)"/><polyline class="cls-77" points="383.66 99.26 383.66 103.37 380.66 103.43"/><path class="cls-78" d="M488.09,494.63s6.5-1.27,6.8,2.23c0,0,.15,2.38-5.53,3.33s-9.67,1.22-10.34-1S485,494.91,488.09,494.63Z" transform="translate(-119.34 -416)"/><path class="cls-79" d="M517.9,495s6.62.3,6.09,3.77c0,0-.4,2.35-6.15,1.95s-9.84-1.07-9.84-3.6C508,494.13,514.85,494.52,517.9,495Z" transform="translate(-119.34 -416)"/><path class="cls-80" d="M532.05,491.42c-.68-20.37-12-24.39-18.89-25a.45.45,0,0,0,0-.08s-2.44-6-22.76-2.32-23,26.4-23,26.4c26.28.87,37.68-9.45,42.47-16.86C515.82,487.05,532.05,491.42,532.05,491.42Z" transform="translate(-119.34 -416)"/><polygon class="cls-81" points="756.03 629.53 726.39 629.53 677.36 655.76 761.66 654.75 756.03 629.53"/><path class="cls-63" d="M860.32,1076.8a5.2,5.2,0,0,1,5.09,5.22l15.87,0-.29-11.24-84.29,1,.29,11.09,58.23-.71h0A5.21,5.21,0,0,1,860.32,1076.8Z" transform="translate(-119.34 -416)"/><path class="cls-17" d="M835,1059.64a2,2,0,0,1-.48-.06l-9.71-2.66a1.8,1.8,0,1,1,1-3.47l9.71,2.66a1.8,1.8,0,0,1-.47,3.53Z" transform="translate(-119.34 -416)"/><path class="cls-17" d="M844.44,1054.77a1.53,1.53,0,0,1-.47-.07l-9.72-2.65a1.8,1.8,0,1,1,1-3.47l9.72,2.66a1.8,1.8,0,0,1-.48,3.53Z" transform="translate(-119.34 -416)"/><rect class="cls-82" x="725.82" y="587.73" width="30.22" height="41.79"/><polygon class="cls-83" points="809.44 629.53 839.08 629.53 888.11 655.76 803.81 654.75 809.44 629.53"/><path class="cls-63" d="M943.82,1076.8a5.2,5.2,0,0,0-5.09,5.22H922.88l.27-11.27,84.29,1-.29,11.09-58.23-.71h0A5.21,5.21,0,0,0,943.82,1076.8Z" transform="translate(-119.34 -416)"/><path class="cls-17" d="M970.71,1061.15a1.8,1.8,0,0,1-.82-3.4l8.2-4.17a1.8,1.8,0,1,1,1.63,3.21l-8.2,4.17A1.81,1.81,0,0,1,970.71,1061.15Z" transform="translate(-119.34 -416)"/><path class="cls-17" d="M962.72,1054.77a1.8,1.8,0,0,1-.67-3.47l6.7-2.66a1.8,1.8,0,1,1,1.33,3.35l-6.7,2.65A1.72,1.72,0,0,1,962.72,1054.77Z" transform="translate(-119.34 -416)"/><polygon class="cls-84" points="836.42 587.74 806.2 587.74 809.44 629.53 839.65 629.53 836.42 587.74"/><path class="cls-85" d="M945.08,688.37c2.27,24.24,20.44,345.1,20.44,345.1H918.35l-20.68-285-8.49.16-5.5,284.84H838.61s-2.57-297.71.18-344.34Z" transform="translate(-119.34 -416)"/><line class="cls-86" x1="757.93" y1="332.68" x2="792.49" y2="332.68"/><polygon class="cls-87" points="849.81 304.47 863.64 339.73 874.33 338.6 866.23 292.99 849.81 304.47"/><path class="cls-88" d="M982.46,750.18a27.64,27.64,0,0,0-1,21.76l-2,12a4,4,0,0,0,2.38,4.38h0a3.4,3.4,0,0,0,4.44-2.18l2.35-6.86.45,2.54a19.19,19.19,0,0,1-1.6,11.74l-5,10.17a3.9,3.9,0,0,0,.19,3.69h0a3.24,3.24,0,0,0,5.57.22l8.12-12.38a21.67,21.67,0,0,0,2.85-16.7L992,747.32Z" transform="translate(-119.34 -416)"/><path class="cls-89" d="M997.32,749.28s-17.91-130.5-35.19-179.2c-8.62-24.31-24.81-28.38-24.81-28.38h0l-10.09-4.5-68.91-.07-14.15,5.94a16,16,0,0,0-2.14,1.11c-45,23.25-81.7,64.76-81.7,64.76L785,638.67l49.6-31.51V708H950.84l0-13.06,15.6,60.14Z" transform="translate(-119.34 -416)"/><path class="cls-90" d="M908.85,529.24l-2.57-31.66s-5.71,4-10.92,5-10.27-2-10.33-2.07S879,497,879,497l-2.44,32.62-18.19,7.47c34.36,31.29,68.91.07,68.91.07Z" transform="translate(-119.34 -416)"/><path class="cls-91" d="M858.32,537.13s12,14.17,34.37,14.17,34.54-14.1,34.54-14.1" transform="translate(-119.34 -416)"/><line class="cls-86" x1="831.45" y1="274.89" x2="831.12" y2="174.87"/><line class="cls-86" x1="715.27" y1="191.16" x2="715.27" y2="174.37"/><path class="cls-92" d="M909.8,420.06c-23.15-11.8-36.21,5.88-36.21,5.88C846.66,433,862.68,461,862.68,461l7.58-9.84,51.21,9.7S935.19,433,909.8,420.06Z" transform="translate(-119.34 -416)"/><path class="cls-93" d="M874.78,473.94a10.14,10.14,0,1,1-10.42-9.85A10.13,10.13,0,0,1,874.78,473.94Z" transform="translate(-119.34 -416)"/><path class="cls-94" d="M858.89,472.8s4-2,7.87,5" transform="translate(-119.34 -416)"/><path class="cls-95" d="M911.78,474.22a10.14,10.14,0,1,0,10.14-10.13A10.14,10.14,0,0,0,911.78,474.22Z" transform="translate(-119.34 -416)"/><path class="cls-94" d="M927.63,472.64s-4.09-1.85-7.73,5.26" transform="translate(-119.34 -416)"/><polygon class="cls-96" points="759.96 81.32 786.96 81.63 788.66 102.15 759.96 81.32"/><path class="cls-97" d="M920.65,456.58A126.09,126.09,0,0,1,917.52,485c-1.56,6.87-7.61,11.7-13.95,15.59l-1.16.71c-6.71,4.13-12.26,4.27-19.11.36h0c-6.91-3.94-13.34-9.15-14.86-16.52a184.37,184.37,0,0,1-3.14-28.24s-3.89-31,26-30.58S920.65,456.58,920.65,456.58Z" transform="translate(-119.34 -416)"/><path class="cls-98" d="M882.52,465.67a2.42,2.42,0,1,1-2.42-2.42A2.42,2.42,0,0,1,882.52,465.67Z" transform="translate(-119.34 -416)"/><path class="cls-99" d="M906.22,465.67a2.42,2.42,0,1,1-2.42-2.42A2.42,2.42,0,0,1,906.22,465.67Z" transform="translate(-119.34 -416)"/><polyline class="cls-94" points="770.42 55.99 770.42 59.86 773.56 59.86"/><path class="cls-100" d="M871.1,455.46,886.88,454s-1.41-4.09-7.79-3.43C872.56,451.29,871.1,455.46,871.1,455.46Z" transform="translate(-119.34 -416)"/><path class="cls-101" d="M911.78,455.46,896,454s1.41-4.09,7.79-3.43C910.32,451.29,911.78,455.46,911.78,455.46Z" transform="translate(-119.34 -416)"/><path class="cls-17" d="M884.36,481.38h15.57s-.74,4.76-8,4.76S884.36,481.38,884.36,481.38Z" transform="translate(-119.34 -416)"/><path class="cls-102" d="M917.5,430l.28,5.7c-3.72-6.09-11.35-14.15-25.59-13.88-20.67.38-16.78,6.66-15.87,7.83-17.28,4.56-17.62,20.52-17.62,20.52L865,469s5.16-19.23,4.84-28.32c-.3-8.78,8.31-11.41,8.89-11.58,2.6-.47,7.08-.16,11.54,5.45,5.34,6.72,18.62,13.59,27.89,9.34l1.34,27.32C930.44,442.9,917.5,430,917.5,430Zm-39.3-.79.34-.07Z" transform="translate(-119.34 -416)"/><rect class="cls-103" x="217.53" y="665.97" width="1202.79" height="3.03"/><polygon class="cls-104" points="559.38 578.51 553.1 638.01 530.49 639.15 528.65 568.41 559.38 578.51"/><path class="cls-1" d="M673.17,1049.61s-15.93,9.28-23.87-5.27L591,1075.27l90.75-.55Z" transform="translate(-119.34 -416)"/><g class="cls-105"><path class="cls-17" d="M601.41,1056.84s22.4,3.35,20.68,31.21l-38.77-10.63Z" transform="translate(-119.34 -416)"/></g><rect class="cls-106" x="591.06" y="1074.99" width="90.75" height="7.94" transform="matrix(1, -0.01, 0.01, 1, -125.92, -412.09)"/><path class="cls-17" d="M642.39,1059.48a1.63,1.63,0,0,1-.63-.48,31.21,31.21,0,0,0-7.1-6.93,1.4,1.4,0,0,1-.42-2,1.59,1.59,0,0,1,2.11-.4,33.68,33.68,0,0,1,7.88,7.63,1.41,1.41,0,0,1-.34,2A1.61,1.61,0,0,1,642.39,1059.48Z" transform="translate(-119.34 -416)"/><path class="cls-17" d="M635,1063.19a1.5,1.5,0,0,1-.63-.48,31.13,31.13,0,0,0-7.11-6.93,1.42,1.42,0,0,1-.42-2,1.59,1.59,0,0,1,2.11-.4,33.68,33.68,0,0,1,7.88,7.63,1.41,1.41,0,0,1-.33,2A1.62,1.62,0,0,1,635,1063.19Z" transform="translate(-119.34 -416)"/><path class="cls-17" d="M627.56,1066.89a1.54,1.54,0,0,1-.63-.48,31.29,31.29,0,0,0-7.1-6.92,1.4,1.4,0,0,1-.42-2,1.58,1.58,0,0,1,2.11-.4,33.9,33.9,0,0,1,7.88,7.63,1.41,1.41,0,0,1-.34,2A1.58,1.58,0,0,1,627.56,1066.89Z" transform="translate(-119.34 -416)"/><polygon class="cls-107" points="615.73 577.52 622.01 637.02 644.62 638.16 646.46 567.42 615.73 577.52"/><path class="cls-2" d="M740.62,1048.62s15.92,9.29,23.87-5.26l58.27,30.92-90.75-.55Z" transform="translate(-119.34 -416)"/><g class="cls-108"><path class="cls-17" d="M812.38,1055.85s-22.4,3.35-20.68,31.21l38.77-10.62Z" transform="translate(-119.34 -416)"/></g><rect class="cls-109" x="773.39" y="1032.6" width="7.94" height="90.75" transform="translate(-424.69 1432.72) rotate(-89.65)"/><path class="cls-17" d="M771.39,1058.49a1.42,1.42,0,0,0,.63-.48,31.68,31.68,0,0,1,7.11-6.93,1.41,1.41,0,0,0,.42-2,1.59,1.59,0,0,0-2.11-.41,33.87,33.87,0,0,0-7.88,7.64,1.4,1.4,0,0,0,.34,2A1.59,1.59,0,0,0,771.39,1058.49Z" transform="translate(-119.34 -416)"/><path class="cls-17" d="M778.81,1062.2a1.54,1.54,0,0,0,.63-.48,32,32,0,0,1,7.1-6.93,1.39,1.39,0,0,0,.42-2,1.57,1.57,0,0,0-2.1-.41A33.79,33.79,0,0,0,777,1060a1.4,1.4,0,0,0,.34,2A1.61,1.61,0,0,0,778.81,1062.2Z" transform="translate(-119.34 -416)"/><path class="cls-17" d="M786.22,1065.91a1.42,1.42,0,0,0,.63-.48,31.68,31.68,0,0,1,7.11-6.93,1.41,1.41,0,0,0,.42-2,1.59,1.59,0,0,0-2.11-.4,33.68,33.68,0,0,0-7.88,7.63,1.41,1.41,0,0,0,.34,2A1.59,1.59,0,0,0,786.22,1065.91Z" transform="translate(-119.34 -416)"/><path class="cls-110" d="M755.66,717.41l-56.81-5-47-2.32-19,161.41a24.89,24.89,0,0,0,.13,6l3.11,140.69h48.33l-2.81-139.58,22.49-111.4,23,254.91h45.8Z" transform="translate(-119.34 -416)"/><rect class="cls-111" x="510.57" y="583.26" width="60.37" height="27.35"/><polygon class="cls-112" points="662.8 610.61 602.43 610.61 599.52 583.26 659.89 583.26 662.8 610.61"/><path class="cls-113" d="M831.59,639.3l-22.47-88.51,11.08-49.58a2.71,2.71,0,0,0-5.23-1.42l-4.32,13.38,4.22-22.71a2.71,2.71,0,0,0-1.4-2.89l-.31-.16a2.71,2.71,0,0,0-3.88,1.67L803,510.16l3-26.93a2.7,2.7,0,0,0-2.17-2.86l-.79-.16a2.71,2.71,0,0,0-3.24,2.45l-3.61,25.77,0-22.44a2.71,2.71,0,0,0-2.33-2.52l-1.08-.16a2.72,2.72,0,0,0-3.09,2.66l-1.25,37.86-4.5-8.57a4.47,4.47,0,0,0-4.42-2.37,3.5,3.5,0,0,0-3,4.41l2.42,8.79a33,33,0,0,0,7.37,13.43l6.66,7.35,4.05,73.32-27.05-16.75-35.78,21.3,72.17,34.45h0a17.1,17.1,0,0,0,25.31-19.89Z" transform="translate(-119.34 -416)"/><path class="cls-114" d="M788.39,523.83s7.31,1.69,11.13,10.27" transform="translate(-119.34 -416)"/><line class="cls-114" x1="677.47" y1="205.62" x2="678.95" y2="224.19"/><line class="cls-86" x1="640.48" y1="235.25" x2="627.35" y2="229.16"/><path class="cls-115" d="M685.49,737c-7.09-3.65-22-12.17-27.88-14.29L634,690l18.63-46.6-33.3-11.78L603,690.24c-1.18,5.93,2.86,12.36,8.25,16.87,11.64,12.67,34,28.32,34,28.32s1.82,9.58,5.52,12.84c0,0,16,2.49,22.89-6.9,0,0,5.53,2.78,11,1.67A3.26,3.26,0,0,0,685.49,737Z" transform="translate(-119.34 -416)"/><line class="cls-114" x1="514.62" y1="273.99" x2="508.3" y2="265.26"/><path class="cls-116" d="M790.33,616.1S774,596.8,749.82,587.73h0l-34.22-13.49-32.46.28-42.81,20s-27,9-32.54,56.93l35.93,10.7,4.79,56.56,107.35-1.48,4-66,10.38,4.82Z" transform="translate(-119.34 -416)"/><line class="cls-86" x1="524.97" y1="247.38" x2="522.57" y2="220.76"/><path class="cls-117" d="M661,584.9s-5.44,2.91-1.17,11.36h0a10.51,10.51,0,0,1-3.7,13.58l-9.41,6a10.48,10.48,0,0,1-15.08-4.12c-1.85-3.78-3-8.08-1.62-11.77C633.39,591.11,653.26,580.91,661,584.9Z" transform="translate(-119.34 -416)"/><path class="cls-118" d="M715.44,574.4h-.06l.21-.17L713,541.68s-5.72,4-10.93,5-10.27-2-10.33-2.06l-6.08-3.5-2.49,33.36.2.17H683l-9.57,4.4s-.1,16,25.89,15.2c26.64-.85,26.58-15.95,26.58-15.95Z" transform="translate(-119.34 -416)"/><path class="cls-119" d="M709.38,467.81s14.94-6.65,20.24,5.93c5.09,12.12-15.15,23.66-15.15,23.66Z" transform="translate(-119.34 -416)"/><path class="cls-120" d="M681.45,518A10.13,10.13,0,1,1,671,508.2,10.14,10.14,0,0,1,681.45,518Z" transform="translate(-119.34 -416)"/><path class="cls-114" d="M665.56,516.91s4-2,7.87,5" transform="translate(-119.34 -416)"/><path class="cls-121" d="M718.45,518.33a10.14,10.14,0,1,0,10.14-10.14A10.14,10.14,0,0,0,718.45,518.33Z" transform="translate(-119.34 -416)"/><path class="cls-114" d="M734.3,516.74s-4.08-1.85-7.72,5.26" transform="translate(-119.34 -416)"/><polygon class="cls-73" points="566.71 127.4 593.71 127.71 595.41 148.23 566.71 127.4"/><path class="cls-122" d="M727.32,500.69a126,126,0,0,1-3.13,28.37c-1.56,6.88-6,11.7-12.38,15.6l-1.15.71a22.1,22.1,0,0,1-22.26.36h0c-6.91-3.94-11.76-9.16-13.28-16.52A184.49,184.49,0,0,1,672,501s-3.89-31,26-30.58S727.32,500.69,727.32,500.69Z" transform="translate(-119.34 -416)"/><path class="cls-123" d="M689.19,509.78a2.42,2.42,0,1,1-2.42-2.42A2.41,2.41,0,0,1,689.19,509.78Z" transform="translate(-119.34 -416)"/><circle class="cls-124" cx="591.14" cy="93.78" r="2.42"/><polyline class="cls-114" points="577.09 97.3 577.09 103.97 581.4 103.97"/><path class="cls-125" d="M677.77,499.57l15.79-1.43s-1.42-4.09-7.8-3.42S677.77,499.57,677.77,499.57Z" transform="translate(-119.34 -416)"/><path class="cls-126" d="M718.45,499.57l-15.78-1.43s1.41-4.09,7.8-3.42S718.45,499.57,718.45,499.57Z" transform="translate(-119.34 -416)"/><path class="cls-17" d="M691,525.48H706.6s-.73,4.77-8,4.77S691,525.48,691,525.48Z" transform="translate(-119.34 -416)"/><path class="cls-127" d="M673,515.63s4.42-33.52,2.26-39C675.25,476.59,660.22,489,673,515.63Z" transform="translate(-119.34 -416)"/><path class="cls-128" d="M726.19,515.36s-5-32-3.59-41.22C722.6,474.14,737.12,487,726.19,515.36Z" transform="translate(-119.34 -416)"/><path class="cls-129" d="M721.23,480.84a18.69,18.69,0,0,1-20.36,1.25s-29.18,18-37.41-1.59c-6.87-16.31,21.63-38.45,51-13.51Z" transform="translate(-119.34 -416)"/><line class="cls-86" x1="570.09" y1="347.55" x2="599.59" y2="351.3"/></g></g></svg>